<svg width="90" height="90" viewBox="0 0 90 90" fill="none" xmlns="http://www.w3.org/2000/svg">
<g clip-path="url(#clip0)">
<path d="M19.5 37.5C15.3582 37.5 12 40.8582 12 45C12 49.1418 15.3582 52.5 19.5 52.5C23.6418 52.5 27 49.1418 27 45C26.9949 40.8596 23.6404 37.5051 19.5 37.5ZM19.5 49.5C17.0149 49.5 15 47.4851 15 45C15 42.5149 17.0149 40.5 19.5 40.5C21.9851 40.5 24 42.5149 24 45C24 47.4851 21.9851 49.5 19.5 49.5Z" fill="#00B2FF"/>
<path d="M49.5 20.9995C53.6418 20.9995 57 17.6414 57 13.4995C57 9.35767 53.6418 5.99951 49.5 5.99951C45.3582 5.99951 42 9.35767 42 13.4995C42.0051 17.6399 45.3596 20.9944 49.5 20.9995ZM49.5 8.99951C51.9851 8.99951 54 11.0144 54 13.4995C54 15.9846 51.9851 17.9995 49.5 17.9995C47.0149 17.9995 45 15.9846 45 13.4995C45 11.0144 47.0149 8.99951 49.5 8.99951Z" fill="#00B2FF"/>
<path d="M85.5 45.6357V40.5C85.4883 36.731 82.6758 33.5588 78.936 33.0945L62.9187 14.9539C62.9714 14.4705 62.9985 13.9856 63 13.5C63 6.04395 56.9561 0 49.5 0C42.0439 0 36 6.04395 36 13.5C36 13.7388 36.0242 13.9709 36.0359 14.2053L18.7002 31.5403C13.2627 31.8501 8.54736 35.4053 6.7522 40.5476C4.95703 45.6899 6.43652 51.4072 10.5 55.0334V78H1.5C0.671631 78 0 78.6716 0 79.5V88.5C0 89.3284 0.671631 90 1.5 90H58.5C59.3284 90 60 89.3284 60 88.5V79.5C60 78.6716 59.3284 78 58.5 78H28.5V55.0334C31.9431 52.0027 33.5757 47.4075 32.8169 42.8833L48.7354 26.9612C48.9902 26.9758 49.2422 27 49.5 27C50.2632 26.9956 51.0242 26.926 51.7756 26.7927L70.5 41.5503V45.6387C67.771 46.8303 66.0051 49.5227 66 52.5V67.5C65.9971 68.0215 66.2651 68.5063 66.7075 68.7817C67.1506 69.0571 67.7043 69.0828 68.1702 68.8499L74.1702 65.8499C74.6814 65.595 75.0029 65.0713 75 64.5V54H81V64.5C80.9971 65.0713 81.3186 65.595 81.8298 65.8499L87.8298 68.8499C88.2957 69.0828 88.8494 69.0571 89.2925 68.7817C89.7349 68.5063 90.0029 68.0215 90 67.5V52.5C89.9963 49.5212 88.2297 46.8274 85.5 45.6357ZM49.5 3C55.2993 3 60 7.70068 60 13.5C60 19.2993 55.2993 24 49.5 24C43.7007 24 39 19.2993 39 13.5C39.0066 7.70361 43.7036 3.00659 49.5 3ZM57 87H3V81H57V87ZM25.5 78H13.5V57.0747C17.2749 58.9739 21.7251 58.9739 25.5 57.0747V78ZM19.5 55.5C13.7007 55.5 9 50.7993 9 45C9 39.2007 13.7007 34.5 19.5 34.5C25.2993 34.5 30 39.2007 30 45C29.9934 50.7964 25.2964 55.4934 19.5 55.5ZM31.8618 39.5999C30.1545 35.7217 26.7297 32.866 22.6077 31.8823L36.7083 17.7825C38.0544 21.78 41.1855 24.9221 45.1787 26.2815L31.8618 39.5999ZM62.0354 18.4849L75.3105 33.5208C73.2546 34.3206 71.655 35.9854 70.938 38.0713L55.2393 25.7007C58.3337 24.2395 60.7617 21.6614 62.0354 18.4849ZM73.5 40.5C73.5 38.0149 75.5149 36 78 36C80.4851 36 82.5 38.0149 82.5 40.5V45H73.5V40.5ZM87 65.0728L84 63.5728V52.5C84 51.6716 83.3284 51 82.5 51H73.5C72.6716 51 72 51.6716 72 52.5V63.5728L69 65.0728V52.5C69 50.0149 71.0149 48 73.5 48H82.5C84.9851 48 87 50.0149 87 52.5V65.0728Z" fill="#00B2FF"/>
<path d="M18 63C17.1716 63 16.5 63.6716 16.5 64.5V73.5C16.5 74.3284 17.1716 75 18 75C18.8284 75 19.5 74.3284 19.5 73.5V64.5C19.5 63.6716 18.8284 63 18 63Z" fill="#00B2FF"/>
<path d="M34.9393 24.4405L28.9392 30.4405C28.5496 30.817 28.3929 31.3751 28.5306 31.8995C28.6675 32.4239 29.0769 32.8334 29.6014 32.9703C30.1258 33.108 30.6839 32.9513 31.0603 32.5616L37.0603 26.5616C37.6287 25.9728 37.6206 25.0375 37.042 24.4589C36.4634 23.8802 35.5281 23.8722 34.9393 24.4405Z" fill="#00B2FF"/>
</g>
<defs>
<clipPath id="clip0">
<rect width="90" height="90" fill="white"/>
</clipPath>
</defs>
</svg>
