<svg width="90" height="90" viewBox="0 0 90 90" fill="none" xmlns="http://www.w3.org/2000/svg">
<g clip-path="url(#clip0)">
<path d="M18.3501 66.6807H8.62636C3.86982 66.6807 0 70.3567 0 74.874V88.2C0 89.1952 0.805957 90.0004 1.80033 90.0004H25.1754C26.1698 90.0004 26.9757 89.1952 26.9757 88.2V74.874C26.9757 70.3567 23.1059 66.6807 18.3501 66.6807ZM23.3751 86.3997H3.59989V74.874C3.59989 72.3408 5.85549 70.2806 8.62636 70.2806H18.3501C21.121 70.2806 23.3751 72.3408 23.3751 74.874V86.3997Z" fill="#00B2FF"/>
<path d="M13.4871 63.6136C18.3466 63.6136 22.3011 59.6599 22.3011 54.7996C22.3011 49.9392 18.3466 45.9863 13.4871 45.9863C8.62748 45.9863 4.67383 49.9392 4.67383 54.7996C4.67383 59.6599 8.62748 63.6136 13.4871 63.6136ZM13.4871 49.5862C16.3625 49.5862 18.7012 51.9256 18.7012 54.7996C18.7012 57.6735 16.3625 60.0137 13.4871 60.0137C10.6124 60.0137 8.27372 57.6735 8.27372 54.7996C8.27372 51.9256 10.6124 49.5862 13.4871 49.5862Z" fill="#00B2FF"/>
<path d="M81.373 66.6807H71.65C66.8942 66.6807 63.0244 70.3567 63.0244 74.874V88.2C63.0244 89.1952 63.8304 90.0004 64.8247 90.0004H88.1998C89.1942 90.0004 90.0001 89.1952 90.0001 88.2V74.874C90.0001 70.3567 86.1303 66.6807 81.373 66.6807ZM86.3995 86.3997H66.6243V74.874C66.6243 72.3408 68.8791 70.2806 71.65 70.2806H81.373C84.1446 70.2806 86.3995 72.3408 86.3995 74.874V86.3997Z" fill="#00B2FF"/>
<path d="M76.5125 63.6136C81.372 63.6136 85.3265 59.6599 85.3265 54.7996C85.3265 49.9392 81.372 45.9863 76.5125 45.9863C71.6529 45.9863 67.6992 49.9392 67.6992 54.7996C67.6992 59.6599 71.6529 63.6136 76.5125 63.6136ZM76.5125 49.5862C79.3879 49.5862 81.7266 51.9256 81.7266 54.7996C81.7266 57.6735 79.3879 60.0137 76.5125 60.0137C73.6378 60.0137 71.2991 57.6735 71.2991 54.7996C71.2991 51.9256 73.6378 49.5862 76.5125 49.5862Z" fill="#00B2FF"/>
<path d="M49.8713 20.7388H40.1275C35.3633 20.7388 31.4873 24.4209 31.4873 28.946V42.2997C31.4873 43.2948 32.2933 44.1 33.2876 44.1H56.7119C57.7063 44.1 58.5122 43.2948 58.5122 42.2997V28.946C58.5122 24.4209 54.6363 20.7388 49.8713 20.7388ZM54.9116 40.5001H35.0872V28.946C35.0872 26.4058 37.349 24.3387 40.1275 24.3387H49.8713C52.6506 24.3387 54.9116 26.4058 54.9116 28.946V40.5001Z" fill="#00B2FF"/>
<path d="M44.9995 17.6572C49.8683 17.6572 53.8281 13.6967 53.8281 8.82784C53.8281 3.96057 49.8683 0 44.9995 0C40.1315 0 36.1709 3.96057 36.1709 8.82784C36.1709 13.6967 40.1315 17.6572 44.9995 17.6572ZM44.9995 3.59989C47.8827 3.59989 50.2282 5.9447 50.2282 8.82784C50.2282 11.7102 47.8827 14.0573 44.9995 14.0573C42.1171 14.0573 39.7708 11.7102 39.7708 8.82784C39.7708 5.9447 42.1171 3.59989 44.9995 3.59989Z" fill="#00B2FF"/>
<path d="M54.2796 61.4798C52.2616 61.4798 50.3821 60.7046 48.9809 59.288C47.5689 57.8745 46.7906 56.0004 46.7906 54.0093C46.7906 53.0142 45.9847 52.209 44.9911 52.209C43.9967 52.209 43.1907 53.0142 43.1907 54.0093C43.1907 58.1275 39.84 61.4798 35.7203 61.4798C34.7259 61.4798 33.9199 62.285 33.9199 63.2794C33.9199 64.2745 34.7259 65.0797 35.7203 65.0797C39.5939 65.0797 43.01 63.0794 44.988 60.0578C45.4025 60.6884 45.8839 61.2814 46.4292 61.8259C48.5041 63.9246 51.2918 65.0797 54.2796 65.0797C55.2732 65.0797 56.0791 64.2745 56.0791 63.2794C56.0791 62.285 55.2732 61.4798 54.2796 61.4798Z" fill="#00B2FF"/>
</g>
<defs>
<clipPath id="clip0">
<rect width="90" height="90" fill="white"/>
</clipPath>
</defs>
</svg>
