<svg width="90" height="90" viewBox="0 0 90 90" fill="none" xmlns="http://www.w3.org/2000/svg">
<g clip-path="url(#clip0)">
<path d="M45.0004 90.0006C44.5371 90.0006 44.0738 89.8533 43.6846 89.5587L20.2968 71.8446C11.3404 65.0613 5.99316 54.3031 5.99316 43.0677V12.422C5.99316 11.4431 6.64561 10.5849 7.58832 10.3225L44.4164 0.0804075C44.7986 -0.0255004 45.2022 -0.0255004 45.5844 0.0804075L82.4125 10.3225C83.3552 10.5849 84.0077 11.4435 84.0077 12.422V43.0677C84.0077 54.3031 78.6604 65.0608 69.704 71.8446L46.3162 89.5587C45.927 89.8533 45.4637 90.0006 45.0004 90.0006ZM10.3515 14.0777V43.0677C10.3515 52.9468 15.0533 62.4057 22.9284 68.3706L45.0004 85.0879L67.0724 68.3706C74.9475 62.4057 79.6493 52.9468 79.6493 43.0677V14.0777L45.0004 4.44181L10.3515 14.0777ZM40.5684 55.408C39.9905 55.408 39.4361 55.1783 39.0273 54.7699L23.081 38.8231C22.2298 37.9719 22.2298 36.5921 23.081 35.7413C23.9326 34.8906 25.312 34.891 26.1628 35.7413L40.5684 50.147L63.8377 26.8777C64.6888 26.027 66.0683 26.027 66.9195 26.8777C67.7706 27.7289 67.7706 29.1088 66.9195 29.9595L42.1095 54.7699C41.7007 55.1783 41.1468 55.408 40.5684 55.408Z" fill="#00B2FF"/>
</g>
<defs>
<clipPath id="clip0">
<rect width="90" height="90" fill="white"/>
</clipPath>
</defs>
</svg>
