<svg width="90" height="90" viewBox="0 0 90 90" fill="none" xmlns="http://www.w3.org/2000/svg">
<g clip-path="url(#clip0)">
<path d="M0.284464 8.25659L6.28674 18.76C6.48921 19.1149 6.82809 19.3717 7.22437 19.4711L12.8242 20.871L32.0304 40.0772L34.1525 37.9557L14.6457 18.4495C14.4538 18.2569 14.213 18.1205 13.9495 18.0544L8.56877 16.7045L3.45844 7.7566L7.83978 3.37526L16.7914 8.49053L18.1419 13.8712C18.2074 14.1354 18.3444 14.3768 18.5364 14.5687L38.0432 34.0755L40.1647 31.9534L20.9585 12.7472L19.5586 7.15045C19.4592 6.75355 19.2024 6.41405 18.8475 6.21097L8.34347 0.209309C7.75769 -0.124014 7.02067 -0.0252513 6.54291 0.45066L0.541246 6.45294C0.0585451 6.92762 -0.0463899 7.66587 0.284464 8.25659Z" fill="#00B2FF"/>
<path d="M62.669 29.5732L29.6583 62.5845L27.5361 60.4624L60.5474 27.4517L62.669 29.5732Z" fill="#00B2FF"/>
<path d="M23.8799 63.7502C23.6083 63.2984 23.1206 63.0225 22.5935 63.0225H13.5907C13.0642 63.0225 12.5759 63.2984 12.3049 63.7502L7.80321 71.2525C7.51742 71.7278 7.51742 72.3222 7.80321 72.7981L12.3049 80.3003C12.5759 80.7516 13.0642 81.0281 13.5907 81.0281H22.5935C23.1206 81.0281 23.6083 80.7516 23.8799 80.3003L28.381 72.7981C28.6667 72.3222 28.6667 71.7278 28.381 71.2525L23.8799 63.7502ZM21.7447 78.0269H14.44L10.8389 72.0253L14.44 66.023H21.7447L25.3459 72.0253L21.7447 78.0269Z" fill="#00B2FF"/>
<path d="M72.1106 36.0149C82.0208 36.0482 90.0823 28.0411 90.1156 18.1309C90.1205 16.6223 89.9353 15.1199 89.5644 13.6576C89.3644 12.8533 88.5502 12.3638 87.7459 12.5638C87.4817 12.6298 87.241 12.7662 87.0484 12.9582L77.708 22.2925L70.2971 19.8228L67.8255 12.4138L77.166 3.07147C77.7518 2.48507 77.7512 1.5351 77.1648 0.949318C76.9716 0.756115 76.7284 0.619082 76.4623 0.553652C66.8515 -1.88022 57.0882 3.9375 54.6544 13.5477C54.2846 15.0057 54.1 16.5044 54.105 18.0087C54.1087 19.1901 54.2303 20.3678 54.4698 21.5246L21.6085 54.3853C20.4517 54.1464 19.274 54.0248 18.0931 54.0205C8.14839 54.0205 0.0869141 62.082 0.0869141 72.0267C0.0869141 81.9709 8.14839 90.0323 18.0931 90.0323C28.0373 90.0323 36.0988 81.9709 36.0988 72.0267C36.0951 70.8453 35.9728 69.6675 35.734 68.5108L43.601 60.6437L47.0416 64.0844C47.628 64.6702 48.5774 64.6702 49.1638 64.0844L49.9138 63.3338C50.5718 62.6801 51.6353 62.6801 52.2933 63.3338C52.9507 63.9893 52.9519 65.0535 52.2964 65.7109C52.2958 65.7115 52.2945 65.7127 52.2933 65.714L51.5433 66.4639C50.9576 67.0497 50.9576 67.9997 51.5433 68.5855L69.4428 86.4849C74.1507 91.236 81.8183 91.2706 86.5694 86.5627C91.3199 81.8548 91.3544 74.1865 86.6466 69.4361C86.6213 69.4101 86.5953 69.3842 86.5694 69.3583L68.67 51.4595C68.0842 50.8737 67.1342 50.8737 66.5484 51.4595L65.7984 52.2094C65.1398 52.8637 64.0769 52.8637 63.4183 52.2094C62.7615 51.5539 62.7597 50.4897 63.4152 49.833C63.4164 49.8317 63.4177 49.8311 63.4183 49.8299L64.1689 49.0793C64.7547 48.4935 64.7547 47.5435 64.1689 46.9578L60.7282 43.5171L68.5953 35.6501C69.752 35.889 70.9298 36.0112 72.1106 36.0149ZM78.0061 87.0318C76.916 87.03 75.8352 86.833 74.8148 86.4497L86.5336 74.7303C88.3021 79.4345 85.9225 84.6813 81.2183 86.4497C80.1918 86.8355 79.1036 87.033 78.0061 87.0318ZM61.0072 48.0336C59.3456 50.0157 59.606 52.9699 61.5881 54.631C63.33 56.0908 65.8688 56.0896 67.6089 54.6267L84.4479 71.4804C84.6306 71.6638 84.8016 71.857 84.967 72.0533L72.1378 84.8825C71.9408 84.7177 71.7476 84.5467 71.5643 84.3634L54.7124 67.5102C56.3741 65.5282 56.1136 62.5739 54.1315 60.9129C52.3896 59.4524 49.8502 59.4543 48.1101 60.9166L45.7096 58.516L58.6061 45.6387L61.0072 48.0336ZM67.0663 32.9421L33.0272 66.9744C32.6538 67.3472 32.5038 67.8886 32.631 68.4003C34.6895 76.4846 29.8045 84.7072 21.7196 86.7652C13.6353 88.8237 5.41267 83.9387 3.3541 75.8538C1.29614 67.7695 6.18117 59.5469 14.2661 57.4883C16.7117 56.8661 19.274 56.8661 21.7196 57.4883C22.2313 57.6136 22.7714 57.4636 23.1455 57.0926L57.1765 23.0597C57.5493 22.6869 57.6993 22.1456 57.5709 21.6345C55.5265 13.6446 60.3461 5.51029 68.336 3.46529C69.8458 3.0795 71.4075 2.93136 72.963 3.02827L65.0479 10.9465C64.646 11.3478 64.5053 11.9422 64.6849 12.4811L67.6854 21.4845C67.8354 21.932 68.1873 22.2838 68.6354 22.4326L77.6388 25.4337C78.1771 25.6134 78.7715 25.4732 79.1733 25.072L87.0885 17.1568C87.1064 17.4432 87.1157 17.7266 87.1157 18.0087C87.1577 26.2535 80.5085 32.9712 72.2637 33.0137C70.989 33.0199 69.7187 32.8631 68.4842 32.5471C67.9725 32.4193 67.4311 32.5687 67.0583 32.9415H67.0663V32.9421Z" fill="#00B2FF"/>
<path d="M77.6745 75.4654L75.5523 77.5875L60.5479 62.5831L62.6694 60.4609L77.6745 75.4654Z" fill="#00B2FF"/>
</g>
<defs>
<clipPath id="clip0">
<rect width="90" height="90" fill="white"/>
</clipPath>
</defs>
</svg>
