<svg width="24" height="24" viewBox="0 0 24 24" fill="none" xmlns="http://www.w3.org/2000/svg">
<path d="M24 4H0V20.0002H24V4Z" fill="#F0F0F0"/>
<path d="M13.5 4H10.5V10.5H0V13.5H10.5V19.9999H13.5V13.5H24V10.5H13.5V4Z" fill="#D80027"/>
<path d="M18.458 14.7812L23.9994 17.8598V14.7812H18.458Z" fill="#0052B4"/>
<path d="M14.6084 14.7812L23.9997 19.9986V18.5233L17.2641 14.7812H14.6084Z" fill="#0052B4"/>
<path d="M21.4982 19.9999L14.6084 16.1719V19.9999H21.4982Z" fill="#0052B4"/>
<path d="M14.6084 14.7812L23.9997 19.9986V18.5233L17.2641 14.7812H14.6084Z" fill="#F0F0F0"/>
<path d="M14.6084 14.7812L23.9997 19.9986V18.5233L17.2641 14.7812H14.6084Z" fill="#D80027"/>
<path d="M4.23473 14.7812L0 17.1339V14.7812H4.23473Z" fill="#0052B4"/>
<path d="M9.39174 15.4453V19.9993H1.19531L9.39174 15.4453Z" fill="#0052B4"/>
<path d="M6.73561 14.7812L0 18.5233V19.9986L9.39131 14.7812H6.73561Z" fill="#D80027"/>
<path d="M5.54133 9.21919L0 6.14062V9.21919H5.54133Z" fill="#0052B4"/>
<path d="M9.39131 9.21737L0 4V5.47534L6.73561 9.21737H9.39131Z" fill="#0052B4"/>
<path d="M2.50195 4L9.39174 7.828V4H2.50195Z" fill="#0052B4"/>
<path d="M9.39131 9.21737L0 4V5.47534L6.73561 9.21737H9.39131Z" fill="#F0F0F0"/>
<path d="M9.39131 9.21737L0 4V5.47534L6.73561 9.21737H9.39131Z" fill="#D80027"/>
<path d="M19.7646 9.21594L23.9994 6.86328V9.21594H19.7646Z" fill="#0052B4"/>
<path d="M14.6084 8.55394V4H22.8048L14.6084 8.55394Z" fill="#0052B4"/>
<path d="M17.2641 9.21737L23.9997 5.47534V4L14.6084 9.21737H17.2641Z" fill="#D80027"/>
</svg>
