<svg width="127" height="31" viewBox="0 0 127 31" fill="none" xmlns="http://www.w3.org/2000/svg">
<path d="M20.5086 30.0004H14.9534L13.8279 24.4046H6.81202L5.6866 30.0004H0.155273V29.925L7.41065 0.476562H13.3011L20.5086 30.0004ZM13.0377 20.6176L10.308 7.31585L7.55432 20.6176H13.0377Z" fill="#00B2FF"/>
<path d="M42.8255 30.0004H36.9829L30.805 16.303C30.805 16.303 30.805 15.4175 30.805 13.6464H36.3124V4.30129H29.2486V30.0004H23.6454V0.514245H38.5154C40.7662 0.514245 41.8916 1.41861 41.8916 3.22735V13.9479C41.8916 15.1914 41.3568 15.9953 40.2873 16.3595C39.7126 16.5479 38.4994 16.6421 36.6476 16.6421L42.8255 30.0004Z" fill="#00B2FF"/>
<path d="M62.5882 4.41571H56.4104V30.0018H50.8312V4.41571H44.6533V0.515625H62.5882V4.41571Z" fill="#8C8C8C"/>
<path d="M81.002 30.0018H65.4616V0.515625H80.8583V4.41571H71.0648V13.026H79.4935V16.8508H71.0648V26.1017H81.002V30.0018Z" fill="#8C8C8C"/>
<path d="M103.295 27.3075C103.295 29.1037 102.154 30.0018 99.8708 30.0018H88.1856C85.9666 30.0018 84.8572 29.1037 84.8572 27.3075V3.22873C84.8572 1.41999 85.9666 0.515625 88.1856 0.515625H99.8708C102.154 0.515625 103.295 1.41999 103.295 3.22873V10.1245H97.7157V4.30267H90.4603V26.2148H97.7157V20.0161H103.295V27.3075Z" fill="#8C8C8C"/>
<path d="M126.546 30.0018H120.895V16.7754H113.304V30.0018H107.701V0.515625H113.304V12.6681H120.895V0.515625H126.546V30.0018Z" fill="#8C8C8C"/>
</svg>
