<svg width="127" height="30" viewBox="0 0 127 30" fill="none" xmlns="http://www.w3.org/2000/svg">
<path d="M20.5096 29.5238H14.9543L13.8289 23.9281H6.81299L5.68757 29.5238H0.15625V29.4485L7.41162 0H13.3021L20.5096 29.5238ZM13.0387 20.141L10.309 6.83928L7.55529 20.141H13.0387Z" fill="#00B2FF"/>
<path d="M42.8265 29.5238H36.9838L30.806 15.8264C30.806 15.8264 30.806 14.9409 30.806 13.1699H36.3134V3.82472H29.2496V29.5238H23.6464V0.037682H38.5163C40.7672 0.037682 41.8926 0.94205 41.8926 2.75079V13.4713C41.8926 14.7148 41.3578 15.5187 40.2883 15.883C39.7136 16.0714 38.5004 16.1656 36.6486 16.1656L42.8265 29.5238Z" fill="#00B2FF"/>
<path d="M62.5872 3.93915H56.4094V29.5252H50.8302V3.93915H44.6523V0.0390625H62.5872V3.93915Z" fill="#8C8C8C"/>
<path d="M81.001 29.5252H65.4607V0.0390625H80.8574V3.93915H71.0638V12.5495H79.4925V16.3742H71.0638V25.6251H81.001V29.5252Z" fill="#8C8C8C"/>
<path d="M103.294 26.831C103.294 28.6271 102.153 29.5252 99.8698 29.5252H88.1846C85.9657 29.5252 84.8562 28.6271 84.8562 26.831V2.75217C84.8562 0.943431 85.9657 0.0390625 88.1846 0.0390625H99.8698C102.153 0.0390625 103.294 0.943431 103.294 2.75217V9.64797H97.7147V3.8261H90.4594V25.7382H97.7147V19.5395H103.294V26.831Z" fill="#8C8C8C"/>
<path d="M126.545 29.5252H120.894V16.2988H113.303V29.5252H107.7V0.0390625H113.303V12.1915H120.894V0.0390625H126.545V29.5252Z" fill="#8C8C8C"/>
</svg>
