<svg width="127" height="113" viewBox="0 0 127 113" fill="none" xmlns="http://www.w3.org/2000/svg">
<path fill-rule="evenodd" clip-rule="evenodd" d="M79.5176 59.0243H89.1515V49.3863C81.2471 49.1461 79.6969 54.7829 79.5176 59.0243Z" fill="#8C8C8C"/>
<path fill-rule="evenodd" clip-rule="evenodd" d="M91.5605 49.5194V53.5228L95.1591 53.5178C95.2986 50.5856 94.1703 49.3043 91.5605 49.3865V49.5194Z" fill="#8C8C8C"/>
<path fill-rule="evenodd" clip-rule="evenodd" d="M77.1079 78.2996V0C34.413 0.641718 0 35.4519 0 78.2996H77.1079Z" fill="#8C8C8C"/>
<path fill-rule="evenodd" clip-rule="evenodd" d="M97.5684 78.2776C113.252 77.6688 125.857 65.0678 126.474 49.3867H97.5684V78.2776Z" fill="#8C8C8C"/>
<path fill-rule="evenodd" clip-rule="evenodd" d="M95.1606 78.2595V61.4336H79.5186C78.838 69.4767 85.6333 79.1172 95.1606 78.2595Z" fill="#8C8C8C"/>
<path fill-rule="evenodd" clip-rule="evenodd" d="M79.5166 0.00390625V46.9756H126.42C126.047 31.6852 118.421 16.8369 104.669 7.83959C96.8892 2.74947 88.1786 0.20602 79.5166 0.00390625Z" fill="#8C8C8C"/>
<path fill-rule="evenodd" clip-rule="evenodd" d="M98.1045 18.719V22.4902L101.701 22.4385C101.84 19.5156 100.706 18.5046 98.1045 18.5866V18.719Z" fill="#00B2FF"/>
<path d="M20.5086 112H14.9534L13.8279 106.405H6.81202L5.6866 112H0.155273V111.925L7.41065 82.4766H13.3011L20.5086 112ZM13.0377 102.618L10.308 89.3158L7.55432 102.618H13.0377Z" fill="#00B2FF"/>
<path d="M42.8255 112H36.9829L30.805 98.303C30.805 98.303 30.805 97.4175 30.805 95.6464H36.3124V86.3013H29.2486V112H23.6454V82.5142H38.5154C40.7662 82.5142 41.8916 83.4186 41.8916 85.2273V95.9479C41.8916 97.1914 41.3568 97.9953 40.2873 98.3595C39.7126 98.5479 38.4994 98.6421 36.6476 98.6421L42.8255 112Z" fill="#00B2FF"/>
<path d="M62.5877 86.4157H56.4099V112.002H50.8307V86.4157H44.6528V82.5156H62.5877V86.4157Z" fill="#8C8C8C"/>
<path d="M81.0015 112.002H65.4611V82.5156H80.8579V86.4157H71.0643V95.026H79.493V98.8508H71.0643V108.102H81.0015V112.002Z" fill="#8C8C8C"/>
<path d="M103.294 109.308C103.294 111.104 102.153 112.002 99.8703 112.002H88.1851C85.9661 112.002 84.8567 111.104 84.8567 109.308V85.2287C84.8567 83.42 85.9661 82.5156 88.1851 82.5156H99.8703C102.153 82.5156 103.294 83.42 103.294 85.2287V92.1245H97.7152V86.3027H90.4599V108.215H97.7152V102.016H103.294V109.308Z" fill="#8C8C8C"/>
<path d="M126.545 112.002H120.894V98.7754H113.303V112.002H107.7V82.5156H113.303V94.6681H120.894V82.5156H126.545V112.002Z" fill="#8C8C8C"/>
</svg>
