<svg width="127" height="79" viewBox="0 0 127 79" fill="none" xmlns="http://www.w3.org/2000/svg">
<path fill-rule="evenodd" clip-rule="evenodd" d="M79.5176 59.0243H89.1515V49.3863C81.2471 49.1461 79.6969 54.7829 79.5176 59.0243Z" fill="#8C8C8C"/>
<path fill-rule="evenodd" clip-rule="evenodd" d="M91.5605 49.5194V53.5228L95.1591 53.5178C95.2986 50.5856 94.1703 49.3043 91.5605 49.3865V49.5194Z" fill="#8C8C8C"/>
<path fill-rule="evenodd" clip-rule="evenodd" d="M77.1079 78.2996V0C34.413 0.641718 0 35.4519 0 78.2996H77.1079Z" fill="#8C8C8C"/>
<path fill-rule="evenodd" clip-rule="evenodd" d="M97.5684 78.2776C113.252 77.6688 125.857 65.0678 126.474 49.3867H97.5684V78.2776Z" fill="#8C8C8C"/>
<path fill-rule="evenodd" clip-rule="evenodd" d="M95.1606 78.2595V61.4336H79.5186C78.838 69.4767 85.6333 79.1172 95.1606 78.2595Z" fill="#8C8C8C"/>
<path fill-rule="evenodd" clip-rule="evenodd" d="M79.5166 0.00390625V46.9756H126.42C126.047 31.6852 118.421 16.8369 104.669 7.83959C96.8892 2.74947 88.1786 0.20602 79.5166 0.00390625Z" fill="#8C8C8C"/>
<path fill-rule="evenodd" clip-rule="evenodd" d="M98.1045 18.719V22.4902L101.701 22.4385C101.84 19.5156 100.706 18.5046 98.1045 18.5866V18.719Z" fill="#00B2FF"/>
</svg>
