<svg width="60" height="60" viewBox="0 0 60 60" fill="none" xmlns="http://www.w3.org/2000/svg">
<path d="M30.0002 0C18.0184 0 8.27051 9.74789 8.27051 21.7296C8.27051 36.5993 27.7165 58.4289 28.5444 59.3509C29.3221 60.217 30.6798 60.2155 31.4561 59.3509C32.284 58.4289 51.73 36.5993 51.73 21.7296C51.7297 9.74789 41.982 0 30.0002 0ZM30.0002 32.6624C23.9719 32.6624 19.0676 27.758 19.0676 21.7296C19.0676 15.7012 23.972 10.797 30.0002 10.797C36.0285 10.797 40.9328 15.7014 40.9328 21.7297C40.9328 27.7581 36.0285 32.6624 30.0002 32.6624Z" fill="#00B2FF"/>
</svg>
