<svg width="140" height="56" viewBox="0 0 140 56" fill="none" xmlns="http://www.w3.org/2000/svg">
<path d="M65.0311 36.3211C65.4725 36.9464 65.9541 37.5326 66.5159 38.0602H51.3663C51.3663 37.4739 50.7844 36.282 50.1422 35.3442C49.5002 34.4062 46.0288 29.2674 46.0288 29.2674V36.3211C46.0288 36.9073 46.0288 37.4739 46.3298 38.0602H33.7085C34.0095 37.4739 34.0095 36.9073 34.0095 36.3211V19.5561C34.0095 18.9699 34.0095 18.4033 33.7085 17.8171H46.3298C46.0288 18.4033 46.0288 18.9699 46.0288 19.5561V26.8835C46.0288 26.8835 50.062 21.7642 50.985 20.5721C51.6873 19.6734 52.5502 18.4032 52.5502 17.8171H65.7133C64.8103 18.4033 63.8071 19.4584 62.9843 20.4354C62.2619 21.2952 58.1686 26.1605 58.1686 26.1605C58.1686 26.1605 64.2283 35.1684 65.031 36.3211H65.0311ZM69.004 19.5561V36.3211C69.004 36.9073 69.004 37.4739 68.703 38.0602H93.0629V32.4328C92.4609 32.7258 91.8789 32.7258 91.277 32.7258H81.0235V30.0684H90.8757V25.8087H81.0235V23.1319H91.277C91.879 23.1319 92.4609 23.1319 93.0629 23.4055V17.7976H68.703C69.004 18.4033 69.004 18.9699 69.004 19.5561V19.5561ZM126.813 36.3211C127.014 36.966 127.355 37.5521 127.797 38.0602H114.593C114.654 37.4739 114.433 36.9073 114.192 36.3211C114.192 36.3211 113.991 35.8521 113.711 35.1684L113.59 34.8752H105.985L105.865 35.1878C105.865 35.1878 105.644 35.7545 105.443 36.3407C105.243 36.9269 105.022 37.4935 105.102 38.0796H94.6882C95.1136 37.5671 95.434 36.9763 95.6313 36.3407L101.872 19.5756C102.092 18.9895 102.313 18.4228 102.233 17.8367H119.83C119.67 18.4228 119.991 18.9895 120.212 19.5756C120.733 20.8457 126.372 35.1878 126.813 36.3211V36.3211ZM111.925 30.5961L110.079 25.9064C109.918 25.4767 109.778 25.0272 109.677 24.5778C109.597 25.0306 109.476 25.4752 109.316 25.9064C109.256 26.102 108.473 28.1536 107.57 30.5961H111.925ZM27.7288 17.8171H14.0039C14.3049 18.4033 14.3049 18.9699 14.3049 19.5561V36.3211C14.3049 36.9073 14.3049 37.4739 14.0039 38.0602H27.7288C27.4278 37.4739 27.4278 36.9073 27.4278 36.3211V19.5561C27.4278 18.9699 27.4278 18.4033 27.7288 17.8171V17.8171ZM122.6 19.4193C122.539 17.993 123.683 16.8011 125.148 16.762H125.329C126.813 16.7424 128.037 17.8756 128.057 19.3216V19.4193C128.098 20.8848 126.914 22.1158 125.389 22.1549C123.884 22.194 122.62 21.0411 122.58 19.5561C122.6 19.517 122.6 19.4583 122.6 19.4192V19.4193ZM123.141 19.4193C123.141 20.5917 124.125 21.5492 125.329 21.5492C126.533 21.5492 127.516 20.5917 127.516 19.4193C127.516 18.247 126.532 17.2895 125.329 17.2895C124.165 17.2504 123.182 18.1297 123.141 19.2629V19.4193ZM124.787 21.002H124.305V17.7976H125.529C126.111 17.8171 126.553 18.2664 126.553 18.8332C126.553 19.224 126.332 19.5756 125.971 19.771L126.673 21.002H126.131L125.489 19.8688H124.787V21.002V21.002ZM124.787 19.4193H125.449C125.77 19.4389 126.051 19.2043 126.051 18.8917C126.051 18.5791 125.83 18.3055 125.509 18.3055H124.787V19.4193V19.4193Z" fill="#0058A3"/>
</svg>
