<svg width="130" height="24" viewBox="0 0 130 24" fill="none" xmlns="http://www.w3.org/2000/svg">
<path fill-rule="evenodd" clip-rule="evenodd" d="M109.639 23.262C107.044 23.262 104.94 21.1795 104.94 18.6096V4.6524C104.94 2.08366 107.044 0 109.639 0H125.303C127.897 0 130 2.08366 130 4.6524V18.6096C130 21.1795 127.897 23.262 125.303 23.262H109.639ZM0.783191 23.262C0.350908 23.262 0 22.9145 0 22.4857V0.775209C0 0.347468 0.350908 0 0.783191 0H22.7104C23.1439 0 23.4948 0.347468 23.4948 0.775209V3.87719C23.4948 4.30493 23.1439 4.6524 22.7104 4.6524H7.04798C6.61561 4.6524 6.2647 4.99987 6.2647 5.42761V8.52959C6.2647 8.95733 6.61561 9.3048 7.04798 9.3048H21.145C21.5774 9.3048 21.9283 9.65112 21.9283 10.08V13.182C21.9283 13.6097 21.5774 13.9561 21.145 13.9561H7.04798C6.61561 13.9561 6.2647 14.3035 6.2647 14.7324V22.4857C6.2647 22.9145 5.91498 23.262 5.48151 23.262H0.783191ZM25.0601 0.775209C25.0601 0.347468 25.411 0 25.8434 0H49.3382C49.7704 0 50.1203 0.347468 50.1203 0.775209V3.87719C50.1203 4.30493 49.7704 4.6524 49.3382 4.6524H32.1081C31.6758 4.6524 31.3249 4.99987 31.3249 5.42761V8.52959C31.3249 8.95733 31.6758 9.3048 32.1081 9.3048H47.7717C48.204 9.3048 48.5549 9.65112 48.5549 10.08V13.182C48.5549 13.6097 48.204 13.9561 47.7717 13.9561H32.1081C31.6758 13.9561 31.3249 14.3035 31.3249 14.7324V17.8344C31.3249 18.2621 31.6758 18.6096 32.1081 18.6096H49.3382C49.7704 18.6096 50.1203 18.9559 50.1203 19.3837V22.4857C50.1203 22.9145 49.7704 23.262 49.3382 23.262H25.8434C25.411 23.262 25.0601 22.9145 25.0601 22.4857V0.775209ZM51.6867 9.3048C51.6867 11.8735 53.791 13.9561 56.3849 13.9561H68.9156C69.7803 13.9561 70.4832 14.651 70.4832 15.5076V17.058C70.4832 17.9147 69.7803 18.6096 68.9156 18.6096H58.7347C58.3035 18.6096 57.9514 18.2621 57.9514 17.8344C57.9514 17.4055 57.6017 17.058 57.1693 17.058H52.4699C52.0376 17.058 51.6867 17.4055 51.6867 17.8344V18.6096C51.6867 21.1795 53.791 23.262 56.3849 23.262H72.0486C74.6436 23.262 76.7468 21.1795 76.7468 18.6096V13.9561C76.7468 11.3873 74.6436 9.3048 72.0486 9.3048H59.5179C58.6532 9.3048 57.9514 8.60987 57.9514 7.75438V6.20282C57.9514 5.34619 58.6532 4.6524 59.5179 4.6524H69.6988C70.1323 4.6524 70.4832 4.99987 70.4832 5.42761C70.4832 5.8565 70.833 6.20282 71.2653 6.20282H75.9647C76.3971 6.20282 76.7468 5.8565 76.7468 5.42761V4.6524C76.7468 2.08366 74.6436 0 72.0486 0H56.3849C53.791 0 51.6867 2.08366 51.6867 4.6524V9.3048ZM78.3133 0.775209C78.3133 0.347468 78.6642 0 79.0977 0H102.591C103.024 0 103.373 0.347468 103.373 0.775209V3.87719C103.373 4.30493 103.024 4.6524 102.591 4.6524H94.759C94.3266 4.6524 93.9769 4.99987 93.9769 5.42761V22.4857C93.9769 22.9145 93.626 23.262 93.1936 23.262H88.4942C88.0619 23.262 87.711 22.9145 87.711 22.4857V5.42761C87.711 4.99987 87.3601 4.6524 86.9277 4.6524H79.0977C78.6642 4.6524 78.3133 4.30493 78.3133 3.87719V0.775209ZM112.772 18.6096C111.906 18.6096 111.206 17.9147 111.206 17.058V6.20282C111.206 5.34619 111.906 4.6524 112.772 4.6524H122.17C123.036 4.6524 123.736 5.34619 123.736 6.20282V17.058C123.736 17.9147 123.036 18.6096 122.17 18.6096H112.772Z" fill="#0099FF"/>
</svg>
