<svg width="137" height="17" viewBox="0 0 137 17" fill="none" xmlns="http://www.w3.org/2000/svg">
<path d="M7.73 0.399999H9.8V13H7.73V7.546H2.33V13H0.26V0.399999H2.33V5.566H7.73V0.399999ZM19.3206 4H21.2646V13H19.3206V11.704C18.5886 12.724 17.5386 13.234 16.1706 13.234C14.9346 13.234 13.8786 12.778 13.0026 11.866C12.1266 10.942 11.6886 9.82 11.6886 8.5C11.6886 7.168 12.1266 6.046 13.0026 5.134C13.8786 4.222 14.9346 3.766 16.1706 3.766C17.5386 3.766 18.5886 4.27 19.3206 5.278V4ZM14.4426 10.57C14.9826 11.11 15.6606 11.38 16.4766 11.38C17.2926 11.38 17.9706 11.11 18.5106 10.57C19.0506 10.018 19.3206 9.328 19.3206 8.5C19.3206 7.672 19.0506 6.988 18.5106 6.448C17.9706 5.896 17.2926 5.62 16.4766 5.62C15.6606 5.62 14.9826 5.896 14.4426 6.448C13.9026 6.988 13.6326 7.672 13.6326 8.5C13.6326 9.328 13.9026 10.018 14.4426 10.57ZM34.1865 4H36.1305V13H23.5305V4H25.4745V11.164H28.8585V4H30.8025V11.164H34.1865V4ZM44.9 4H46.394V13H44.486V7.276L39.878 13H38.384V4H40.292V9.706L44.9 4ZM61.1596 4V13H59.2156V5.836H55.0936V13H53.1496V4H61.1596ZM70.5433 4H72.4873V13H70.5433V11.704C69.8113 12.724 68.7613 13.234 67.3933 13.234C66.1573 13.234 65.1013 12.778 64.2253 11.866C63.3493 10.942 62.9113 9.82 62.9113 8.5C62.9113 7.168 63.3493 6.046 64.2253 5.134C65.1013 4.222 66.1573 3.766 67.3933 3.766C68.7613 3.766 69.8113 4.27 70.5433 5.278V4ZM65.6653 10.57C66.2053 11.11 66.8833 11.38 67.6993 11.38C68.5153 11.38 69.1933 11.11 69.7333 10.57C70.2733 10.018 70.5433 9.328 70.5433 8.5C70.5433 7.672 70.2733 6.988 69.7333 6.448C69.1933 5.896 68.5153 5.62 67.6993 5.62C66.8833 5.62 66.2053 5.896 65.6653 6.448C65.1253 6.988 64.8553 7.672 64.8553 8.5C64.8553 9.328 65.1253 10.018 65.6653 10.57ZM79.8471 3.766C81.0831 3.766 82.1391 4.228 83.0151 5.152C83.8911 6.064 84.3291 7.18 84.3291 8.5C84.3291 9.832 83.8911 10.954 83.0151 11.866C82.1391 12.778 81.0831 13.234 79.8471 13.234C78.4791 13.234 77.4291 12.73 76.6971 11.722V16.6H74.7531V4H76.6971V5.296C77.4291 4.276 78.4791 3.766 79.8471 3.766ZM77.5071 10.57C78.0471 11.11 78.7251 11.38 79.5411 11.38C80.3571 11.38 81.0351 11.11 81.5751 10.57C82.1151 10.018 82.3851 9.328 82.3851 8.5C82.3851 7.672 82.1151 6.988 81.5751 6.448C81.0351 5.896 80.3571 5.62 79.5411 5.62C78.7251 5.62 78.0471 5.896 77.5071 6.448C76.9671 6.988 76.6971 7.672 76.6971 8.5C76.6971 9.328 76.9671 10.018 77.5071 10.57ZM92.6155 4V5.872H89.6815V13H87.7375V5.872H84.7855V4H92.6155ZM99.9969 4H101.941V13H99.9969V9.418H95.8749V13H93.9309V4H95.8749V7.582H99.9969V4ZM105.727 9.328C105.871 10.012 106.201 10.54 106.717 10.912C107.233 11.272 107.863 11.452 108.607 11.452C109.639 11.452 110.413 11.08 110.929 10.336L112.531 11.272C111.643 12.58 110.329 13.234 108.589 13.234C107.125 13.234 105.943 12.79 105.043 11.902C104.143 11.002 103.693 9.868 103.693 8.5C103.693 7.156 104.137 6.034 105.025 5.134C105.913 4.222 107.053 3.766 108.445 3.766C109.765 3.766 110.845 4.228 111.685 5.152C112.537 6.076 112.963 7.198 112.963 8.518C112.963 8.722 112.939 8.992 112.891 9.328H105.727ZM105.708 7.744H111.001C110.869 7.012 110.563 6.46 110.083 6.088C109.615 5.716 109.063 5.53 108.427 5.53C107.707 5.53 107.107 5.728 106.627 6.124C106.147 6.52 105.841 7.06 105.708 7.744ZM119.767 3.766C121.003 3.766 122.059 4.228 122.935 5.152C123.811 6.064 124.249 7.18 124.249 8.5C124.249 9.832 123.811 10.954 122.935 11.866C122.059 12.778 121.003 13.234 119.767 13.234C118.399 13.234 117.349 12.73 116.617 11.722V16.6H114.673V4H116.617V5.296C117.349 4.276 118.399 3.766 119.767 3.766ZM117.427 10.57C117.967 11.11 118.645 11.38 119.461 11.38C120.277 11.38 120.955 11.11 121.495 10.57C122.035 10.018 122.305 9.328 122.305 8.5C122.305 7.672 122.035 6.988 121.495 6.448C120.955 5.896 120.277 5.62 119.461 5.62C118.645 5.62 117.967 5.896 117.427 6.448C116.887 6.988 116.617 7.672 116.617 8.5C116.617 9.328 116.887 10.018 117.427 10.57ZM129.935 7.06C130.895 7.06 131.681 7.336 132.293 7.888C132.905 8.428 133.211 9.142 133.211 10.03C133.211 10.906 132.905 11.62 132.293 12.172C131.681 12.724 130.895 13 129.935 13H126.011V4H127.955V7.06H129.935ZM134.291 4H136.235V13H134.291V4ZM129.953 11.254C130.337 11.254 130.655 11.14 130.907 10.912C131.171 10.684 131.303 10.39 131.303 10.03C131.303 9.658 131.171 9.364 130.907 9.148C130.655 8.92 130.337 8.806 129.953 8.806H127.955V11.254H129.953Z" fill="white"/>
</svg>
