<svg width="136" height="29" viewBox="0 0 136 29" fill="none" xmlns="http://www.w3.org/2000/svg">
<g clip-path="url(#clip0)">
<path d="M18.0966 10.8386C17.8757 10.1345 17.2306 8.55189 17.0549 7.38346C16.6671 4.79558 18.0201 3.09124 19.2626 2.70092C20.657 2.31186 21.2017 3.01217 21.7413 4.63995C22.4391 7.11864 22.517 10.3667 22.2823 15.0166C21.9773 21.3683 18.7995 29.039 10.9001 28.8797C4.08136 28.7303 1.06419 24.3138 0.750429 17.5756C0.602332 14.3991 0.829498 11.2238 2.1448 6.73334C2.84262 4.3287 3.46513 3.47277 5.63011 3.01217C7.33197 2.70093 7.17885 4.48057 6.79355 6.57898C5.94513 11.2239 5.55104 13.4666 5.8648 18.7365C6.16853 24.3138 8.73011 26.4838 11.5189 26.4838C15.702 26.5641 17.5595 23.0789 18.3376 18.0387C18.9513 14.0125 18.4882 12.076 18.0966 10.8386ZM107.286 16.3394C108.915 16.3394 109.382 18.2658 108.993 19.433C108.604 20.5927 107.212 21.9155 105.045 22.3008C104.578 21.1361 104.344 16.3394 107.286 16.3394ZM77.0067 18.9649C77.0067 17.6534 76.3051 16.5678 75.4605 16.5678C74.7551 16.5678 73.1348 17.3396 73.1348 19.8196C73.1348 21.7624 73.8251 22.6836 74.1414 23.0789C76.3817 22.3786 77.0067 20.5149 77.0067 18.9649ZM52.912 3.16654C52.8028 1.92406 51.8289 1.07817 50.5111 1.07817C49.0414 1.07817 47.6571 2.62061 47.8039 4.55838C47.8981 5.836 48.6511 6.88646 50.1308 6.88646C51.8289 6.88771 53.0677 4.9512 52.912 3.16654ZM65.5091 7.71604C65.3748 5.54985 64.8502 4.57218 63.6867 4.6525C62.1443 4.74537 61.4314 9.59858 61.7464 14.7003C61.9472 18.0286 62.443 18.542 62.9048 18.5093C63.7583 18.4579 65.8053 12.5115 65.5091 7.71604ZM116.893 15.87C115.932 19.8522 113.022 25.7107 108.679 25.7107C107.674 25.7107 105.892 25.3204 105.892 24.3138C105.892 23.2282 112.713 23.0789 112.713 17.8856C112.713 15.9516 110.932 13.2369 108.297 13.2369C104.811 13.2369 101.411 17.0359 101.411 22.302C101.411 27.0235 104.344 28.5734 107.288 28.5734C112.402 28.5734 115.501 24.3879 117.126 20.9052C117.904 23.2295 118.361 28.5734 120.305 28.5734C121.077 28.5734 121.623 28.1856 122.553 26.0972C124.871 20.9039 127.12 14.94 130.22 14.94C131.378 14.94 130.684 17.0359 133.472 17.0359C134.786 17.0359 135.712 15.9516 135.712 14.7066C135.712 12.9232 134.088 11.5338 131.612 11.5338C124.329 11.5338 122.785 22.4564 121.622 22.4564C119.684 22.4564 120.304 13.7025 118.907 13.7025C117.667 13.7013 117.058 15.1785 116.893 15.87ZM54.9277 25.1635C56.0886 25.1635 58.0854 24.787 59.6567 22.2707C58.7581 20.2752 58.1168 16.2427 58.0277 14.7743C57.5658 7.26548 60.4587 0.20215 63.6252 0.00636453C65.9471 -0.134199 67.8046 2.06337 68.018 5.6239C68.589 14.9802 65.4727 18.8858 63.9127 22.2556C64.1762 23.5621 66.3926 25.786 68.4836 25.786C69.2554 25.786 70.1892 25.3982 70.4239 25.0844C70.2683 24.546 70.1101 23.8495 70.1101 22.8392C70.1101 17.4174 73.5967 12.8454 76.6189 12.8454C79.0198 12.8454 80.4142 16.0206 80.4142 18.1165C80.4142 20.5914 78.3208 22.6095 75.2245 24.546C75.7692 25.0844 76.7708 25.476 77.6267 25.476C82.0458 25.476 84.3576 20.1296 86.0695 15.2475C86.3783 14.3163 86.9242 13.0022 88.0061 13.0022C89.8648 13.0022 90.643 25.2413 93.7329 25.2413C95.0545 25.2413 96.1363 22.5279 96.1363 20.4421C96.1363 18.8909 95.5942 18.7352 95.5942 16.4887C95.5942 14.0125 96.912 11.9229 98.6979 11.9229C99.781 11.9229 100.173 13.0022 100.173 14.3163C100.173 19.2749 96.6045 28.4944 91.3445 28.4944C87.3873 28.4944 87.6961 21.677 86.3029 21.677C84.7467 21.677 82.5779 28.5709 74.917 28.5709C73.672 28.5709 72.358 27.9522 71.2761 26.7097C69.4199 27.9522 67.8661 28.4944 66.0839 28.4944C63.2211 28.4944 61.9786 25.5501 60.8202 25.5501C59.4233 25.5501 57.8783 28.5709 53.2258 28.5709C49.5083 28.5709 48.8883 23.6186 47.5743 23.6186C46.4096 23.6186 44.6286 28.5709 42.6933 28.5709C39.4352 28.5709 38.7449 19.9752 35.8733 19.9752C33.628 19.9752 26.5306 28.7052 24.6041 28.5057C23.8298 28.4253 23.5034 27.8468 23.585 27.0712C23.6942 25.9994 24.6167 23.1303 24.9907 21.7737C25.617 19.418 26.1918 16.8364 26.5131 16.0131C26.8319 15.1822 27.6916 14.5899 28.3819 14.6539C28.7295 14.6865 28.8337 15.3353 28.9416 15.8712C29.3332 17.7864 29.8791 19.7393 30.4954 19.7393C31.5835 19.7393 35.1768 12.8441 37.2677 12.8441C39.828 12.8441 40.1343 23.6913 43.6183 23.6913C44.783 23.6913 45.6377 22.2995 46.4096 20.5902C46.4886 17.7199 47.263 13.6235 49.5861 13.6235C51.2139 13.6235 51.9896 17.2606 50.8236 20.4408C50.8211 24.2335 53.2973 25.1635 54.9277 25.1635Z" fill="#1766A6"/>
</g>
<defs>
<clipPath id="clip0">
<rect width="135" height="28.881" fill="white" transform="translate(0.710938)"/>
</clipPath>
</defs>
</svg>
