<svg width="111" height="45" viewBox="0 0 111 45" fill="none" xmlns="http://www.w3.org/2000/svg">
<g clip-path="url(#clip0)">
<path d="M0.110776 19.2503C0.110776 23.427 3.78226 25.2259 7.1142 25.2259H14.9454C19.1306 25.2259 22.4145 21.3387 22.4145 17.4692C22.4145 13.2707 19.0919 9.95291 14.9246 9.84256H7.33102C5.2917 9.50786 5.41335 6.56897 7.33102 6.2937H21.5914C21.5914 3.02302 19.1306 0.445312 15.6873 0.445312H7.33102C3.03362 0.445312 0.0683594 4.15631 0.0683594 8.11997C0.0683594 12.2411 3.27682 15.7022 7.33102 15.7022H14.9454C16.8735 16.0813 17.1149 18.8174 14.9454 19.2501H0.110776V19.2503Z" fill="#097CBC"/>
<path d="M30.4654 0.441406H24.6133V25.2248H30.4654V0.441406Z" fill="#097CBC"/>
<path d="M57.0829 18.959C54.9318 23.0339 50.6674 25.8078 45.7759 25.8078C38.7132 25.8078 32.9883 20.0263 32.9883 12.8956C32.9883 5.76397 38.7132 -0.015625 45.7759 -0.015625C50.6202 -0.015625 54.8347 2.70257 57.0056 6.71252L51.7649 9.5401C50.593 7.37913 48.3273 5.94031 45.776 5.94031C42.0556 5.94031 38.9434 9.00074 38.9434 12.8956C38.9434 16.7905 42.0557 19.8519 45.776 19.8519C48.3801 19.8519 50.6996 18.3528 51.8497 16.1173L57.0829 18.959Z" fill="#097CBC"/>
<path d="M59.291 0.441406V25.2248H65.2083V15.6221H67.2881L73.5166 25.2238H80.7971L72.536 12.9896L80.9196 0.441406H73.6411L67.4881 10.3808H65.2083V0.441406H59.291Z" fill="#097CBC"/>
<path d="M-0.0546875 40.6368C0.0216403 40.9027 0.085803 41.1176 0.224356 41.3732C0.402526 41.6645 0.630755 41.9294 0.896664 42.1454C1.37939 42.5394 2.1516 42.9571 3.58472 42.9571C5.29504 42.9571 6.25952 42.2461 6.66399 41.6645C6.82902 41.4354 7.12131 40.9027 7.12131 40.1417C7.12131 39.3817 6.81578 38.6463 6.19633 38.1769C5.80317 37.8865 5.33369 37.7347 4.85085 37.6074C4.52175 37.5047 4.19275 37.4292 3.86376 37.3405C3.11512 37.1623 2.7984 37.1368 2.46833 36.8842C2.11382 36.6174 2.05159 36.2751 2.03749 36.1242C2.03749 36.0225 2.0629 35.7943 2.22793 35.566C2.30523 35.451 2.4061 35.3623 2.51925 35.287C2.91241 35.0456 3.52055 35.0333 3.61012 35.0333C4.19286 35.0333 4.76322 35.1974 5.08005 35.7302C5.10643 35.7687 5.18286 35.8961 5.23271 36.0346C5.45997 35.9847 5.70036 35.9329 5.91718 35.8697C6.19622 35.7943 6.46213 35.7189 6.72804 35.6293C6.71577 35.5661 6.63944 35.3247 6.51305 35.1099C6.33488 34.8053 6.0567 34.5639 5.96713 34.4876C5.06767 33.7144 3.97777 33.7031 3.58461 33.7031C1.9743 33.7031 1.12565 34.4508 0.770169 35.009C0.414691 35.5775 0.389284 36.2007 0.389284 36.4412C0.389284 36.7447 0.427071 37.3926 0.985157 38.013C1.40383 38.4683 1.80915 38.6088 2.03738 38.6842C2.1769 38.7228 2.31546 38.7615 2.46822 38.8115C2.74737 38.9001 3.03869 38.9765 3.33 39.0519C3.81273 39.1669 4.57267 39.2942 4.9781 39.5582C5.35899 39.7986 5.42121 40.2182 5.42121 40.371C5.42121 40.5095 5.39763 40.764 5.19395 41.029C5.07984 41.1563 4.95356 41.2703 4.81306 41.3458C4.38309 41.5872 3.72316 41.5872 3.62315 41.5872C2.50687 41.5872 1.96095 41.2204 1.69601 40.7886C1.59416 40.6368 1.54324 40.5094 1.49232 40.3464L-0.0546875 40.6368Z" fill="#738087"/>
<path fill-rule="evenodd" clip-rule="evenodd" d="M9.56567 38.734C9.60345 38.3908 9.62983 38.2899 9.70519 38.1145C9.9079 37.5677 10.3019 37.3272 10.5047 37.2244C10.5801 37.1858 10.7828 37.098 11.0242 37.098C11.175 37.098 11.4673 37.1235 11.7964 37.3772C12.2791 37.7336 12.3678 38.1758 12.4555 38.734H9.56567ZM13.9385 39.6853C13.9385 39.1771 13.9272 38.6313 13.8 38.1504C13.7491 37.9853 13.6492 37.6318 13.3813 37.2518C12.6336 36.1599 11.5182 36.0469 11.0487 36.0469C9.69291 36.0469 8.63983 36.8709 8.23343 38.1391C8.05709 38.7217 8.04492 39.2931 8.04492 39.5081C8.04492 41.3448 8.78129 42.1197 9.47706 42.5243C10.1106 42.891 10.7188 42.9297 10.9978 42.9297C11.9623 42.9297 12.8873 42.512 13.4332 41.7249C13.6492 41.409 13.8255 40.9772 13.8632 40.8894L12.5074 40.6735C12.4556 40.8272 12.4055 40.9526 12.3169 41.093C12.0379 41.4986 11.5683 41.7511 11.0865 41.7511C10.897 41.7511 10.5802 41.7247 10.238 41.422C9.69302 40.9402 9.65523 40.2943 9.62983 40.0644C9.61659 39.9399 9.60345 39.8117 9.60345 39.6986L13.9385 39.6853Z" fill="#738087"/>
<path fill-rule="evenodd" clip-rule="evenodd" d="M15.2324 36.188V42.7549L16.7165 42.8039V39.3061C16.7533 38.6224 16.8041 38.0012 17.3878 37.5571C17.6914 37.3043 17.9958 37.2648 18.1364 37.2648C18.4787 37.2648 18.6937 37.4176 18.7955 37.5052C19.1878 37.8484 19.1878 38.3179 19.2009 38.8242V42.8039H20.6208V38.3302C20.6076 38.2547 20.6076 37.887 20.5322 37.5938C20.4559 37.2778 20.3408 37.0621 20.2908 36.9611C20.1646 36.7451 19.9995 36.5424 19.8091 36.4029C19.6319 36.2756 19.2386 36.0484 18.6305 36.0352C17.5915 36.0352 17.1097 36.6821 16.907 37.0119C16.792 37.1873 16.6656 37.4296 16.5883 37.6078V36.1879H15.2324V36.188Z" fill="#738087"/>
<path d="M25.162 40.3051C25.4666 40.3693 25.7589 40.4437 25.8975 40.6842C25.9616 40.8133 25.9738 40.9255 25.9738 40.9906C25.9738 41.3573 25.6693 41.56 25.5674 41.6111C25.4412 41.6874 25.0988 41.8015 24.6557 41.8015C24.5539 41.8015 23.8948 41.7884 23.5149 41.4602C23.3999 41.3574 23.3235 41.2688 23.1849 40.9765L21.8027 41.2688C22.0564 41.7761 22.1959 42.0033 22.3741 42.1948C22.8936 42.7001 23.8563 42.9048 24.5794 42.9048C24.8207 42.9048 25.9493 42.8794 26.7092 42.3212C27.406 41.8016 27.4956 41.0785 27.4956 40.7494C27.4956 40.1026 27.1778 39.4689 26.6084 39.1399C26.4302 39.0382 26.2784 38.975 25.872 38.8477L24.3767 38.5696C24.0212 38.48 23.6922 38.4168 23.5281 38.0991C23.464 37.9849 23.4518 37.8727 23.4518 37.8323C23.4518 37.6936 23.5027 37.5673 23.5281 37.5287C23.7166 37.2005 24.1617 37.1496 24.2749 37.1355C24.4267 37.1119 24.5663 37.1119 24.6181 37.1119C25.4158 37.1119 25.6694 37.555 25.8467 37.8323L27.1535 37.555C26.9244 37.0864 26.8367 36.9338 26.6585 36.7432C26.1768 36.2247 25.314 36.0078 24.6305 36.0078C23.9724 36.0078 23.2239 36.1728 22.7288 36.5925C22.3102 36.9592 22.0443 37.5796 22.0443 38.1632C22.0443 39.0626 22.6006 39.5077 22.8806 39.6718C23.1342 39.8368 23.3756 39.9 23.6546 39.9886L25.162 40.3051Z" fill="#738087"/>
<path fill-rule="evenodd" clip-rule="evenodd" d="M29.7848 39.4826C29.8112 38.9103 29.9243 38.0994 30.3684 37.6563C30.7097 37.315 31.1793 37.2763 31.3442 37.2763C31.7883 37.2763 32.0786 37.4923 32.1937 37.6063C32.7377 38.1258 32.7509 38.9244 32.7632 39.1403C32.7765 39.2779 32.7764 39.4184 32.7764 39.5702C32.7764 39.8116 32.8142 40.8892 32.0787 41.4607C31.9402 41.5606 31.6856 41.7397 31.2556 41.7397C30.2024 41.7397 29.8988 40.6989 29.8479 40.433C29.7461 40.0274 29.7724 39.6089 29.7848 39.4826ZM28.2384 39.3176C28.1356 41.1043 29.0493 42.131 29.6706 42.5119C30.2919 42.9051 30.9764 42.9296 31.2291 42.9296C31.6986 42.9296 32.8017 42.842 33.6003 41.8019C34.1076 41.1307 34.3225 40.3057 34.3225 39.4826C34.3225 37.7072 33.2835 36.0469 31.3808 36.0469C31.0009 36.0469 29.9742 36.1355 29.1756 36.9719C28.3385 37.859 28.2507 38.9489 28.2384 39.3176Z" fill="#738087"/>
<path fill-rule="evenodd" clip-rule="evenodd" d="M35.7324 36.1865V42.8024L36.2633 42.7657C36.5687 42.7534 36.8855 42.7657 37.1891 42.7778V40.053C37.2014 39.7739 37.1392 38.7462 37.8227 38.0739C38.1904 37.7072 38.5336 37.6827 38.7486 37.6695C38.8627 37.6563 38.9767 37.6563 39.0908 37.6563L39.1041 36.0469C38.9259 36.0573 38.5195 36.0469 38.1018 36.2986C37.5323 36.6418 37.3032 37.2122 37.0628 37.8214V36.1864H35.7324V36.1865Z" fill="#738087"/>
<path d="M43.6895 42.0681V42.7527H45.3366V33.9297H43.7008V34.8554L43.6895 42.0681Z" fill="#738087"/>
<path fill-rule="evenodd" clip-rule="evenodd" d="M47.1875 36.188V42.7549L48.6706 42.8039V39.3061C48.7074 38.6224 48.7592 38.0012 49.3419 37.5571C49.6465 37.3043 49.951 37.2648 50.0905 37.2648C50.4328 37.2648 50.6487 37.4176 50.7496 37.5052C51.1419 37.8484 51.1419 38.3179 51.155 38.8242V42.8039H52.5759V38.3302C52.5626 38.2547 52.5626 37.887 52.4863 37.5938C52.41 37.2778 52.2968 37.0621 52.2449 36.9611C52.1187 36.7451 51.9536 36.5424 51.7632 36.4029C51.586 36.2756 51.1927 36.0484 50.5847 36.0352C49.5457 36.0352 49.0639 36.6821 48.8611 37.0119C48.7461 37.1873 48.6197 37.4296 48.5434 37.6078V36.1879H47.1875V36.188Z" fill="#738087"/>
<path d="M53.5918 36.1882V37.4177H54.3914V41.0693C54.4536 41.5878 54.5055 42.0054 54.8854 42.3873C55.2521 42.7796 55.7466 42.8436 56.3029 42.8436C56.6084 42.8436 56.9139 42.8182 57.2174 42.804L57.2306 41.5878C56.8234 41.6264 56.3179 41.6764 56.0389 41.3465C55.9239 41.2069 55.873 41.0693 55.8485 40.7138V37.4045H57.1534V36.175H55.8352V34.3242L54.644 34.4118L54.479 36.1882H53.5918Z" fill="#738087"/>
<path fill-rule="evenodd" clip-rule="evenodd" d="M59.3459 38.734C59.3837 38.3908 59.4082 38.2899 59.4856 38.1145C59.6873 37.5677 60.0813 37.3272 60.2832 37.2244C60.3605 37.1858 60.5622 37.098 60.8036 37.098C60.9564 37.098 61.2467 37.1235 61.5768 37.3772C62.0577 37.7336 62.1481 38.1758 62.2367 38.734H59.3459ZM63.7207 39.6853C63.7207 39.1771 63.7076 38.6313 63.5812 38.1504C63.5303 37.9853 63.4284 37.6318 63.1625 37.2518C62.4139 36.1599 61.2976 36.0469 60.83 36.0469C59.4723 36.0469 58.4201 36.8709 58.0147 38.1391C57.8375 38.7217 57.8262 39.2931 57.8262 39.5081C57.8262 41.3448 58.5596 42.1197 59.2573 42.5243C59.891 42.891 60.5 42.9297 60.7792 42.9297C61.7408 42.9297 62.6667 42.512 63.2135 41.7249C63.4284 41.409 63.6058 40.9772 63.6434 40.8894L62.2858 40.6735C62.2367 40.8272 62.1858 40.9526 62.0972 41.093C61.8181 41.4986 61.3504 41.7511 60.8678 41.7511C60.6772 41.7511 60.3605 41.7247 60.0191 41.422C59.4723 40.9402 59.4345 40.2943 59.4082 40.0644C59.395 39.9399 59.3836 39.8117 59.3836 39.6986L63.7207 39.6853Z" fill="#738087"/>
<path d="M66.5232 33.8789H64.9902V42.7916H66.5232V33.8789Z" fill="#738087"/>
<path d="M69.6463 33.8789H68.1113V42.7916H69.6463V33.8789Z" fill="#738087"/>
<path fill-rule="evenodd" clip-rule="evenodd" d="M71.2504 35.4663H72.7062V33.8945H71.2504V35.4663ZM71.2109 42.7807H72.7195V36.1893H71.2109V42.7807Z" fill="#738087"/>
<path fill-rule="evenodd" clip-rule="evenodd" d="M75.8688 37.8991C75.9197 37.5814 76.148 36.9356 77.0606 36.9356C77.5415 36.9356 77.8091 37.0996 77.9336 37.2138C78.2522 37.4814 78.2768 37.887 78.2768 38.0388C78.2768 38.4565 78.0618 39.1418 77.0718 39.1418C76.5268 39.1418 76.0573 38.8883 75.9065 38.3923C75.8423 38.1773 75.8556 38.001 75.8688 37.8991ZM75.4125 42.3494C76.4402 42.5398 76.7947 42.5133 77.8468 42.5257C78.4163 42.5398 78.6689 42.6284 78.8725 42.818C79.0366 42.9839 79.0497 43.1339 79.0497 43.2243C79.0497 43.5778 78.7462 43.8316 78.4276 43.9466C78.0372 44.0851 77.4414 44.0851 77.3508 44.0851C76.2364 44.0851 75.5897 43.856 75.2955 43.4393C75.2464 43.3751 75.1332 43.1856 75.1332 42.931C75.1334 42.6652 75.2353 42.5398 75.4125 42.3494ZM80.4434 34.9076C79.5836 34.8821 79.2404 34.9453 78.9104 35.1867C78.5559 35.4648 78.4542 35.7825 78.3278 36.2012C77.8601 36.0984 77.5678 36.0352 77.0719 36.0352C76.3743 36.0352 75.6275 36.137 75.0693 36.5425C74.5998 36.897 74.3358 37.4296 74.3358 38.0134C74.3358 38.9372 74.9939 39.3692 75.2353 39.5473C74.8788 39.7612 74.5376 39.9782 74.3358 40.3336C74.2849 40.41 74.183 40.5986 74.183 40.8541C74.183 41.334 74.449 41.6263 74.7525 41.9676C74.2472 42.2853 74.0945 42.4494 73.953 42.7549C73.8398 42.9953 73.8398 43.1858 73.8398 43.3C73.8398 44.0986 74.4489 44.5171 74.6638 44.6294C74.9183 44.7699 75.1201 44.8349 75.2353 44.8585C75.552 44.9339 76.1988 45.0498 77.021 45.0498C78.2523 45.0498 78.9237 44.8349 79.4177 44.5548C80.2926 44.0598 80.4322 43.3753 80.4322 42.9445C80.4322 42.2609 80.0023 41.6896 79.38 41.4105C78.9369 41.2209 78.277 41.1692 77.2002 41.1436C76.5157 41.1436 76.2743 41.1568 75.9312 41.0294C75.5521 40.8909 75.4635 40.6128 75.4635 40.4346C75.4635 40.1677 75.654 40.0027 75.7162 39.9519C75.754 39.9151 75.8048 39.8774 75.8558 39.8245C76.5157 39.9905 76.7571 40.016 77.1362 40.016C78.1488 40.016 78.8483 39.6104 79.152 39.3692C79.7346 38.8883 79.7988 38.266 79.7988 37.9869C79.7988 37.4296 79.5707 37.062 79.4312 36.9102C79.2915 36.7574 79.1898 36.6821 79.0238 36.5557C79.0879 36.4293 79.152 36.3266 79.254 36.238C79.533 36.0098 80.0647 36.023 80.4438 36.0352V34.9076H80.4434Z" fill="#738087"/>
<path fill-rule="evenodd" clip-rule="evenodd" d="M82.6253 38.734C82.6631 38.3908 82.6895 38.2899 82.765 38.1145C82.9667 37.5677 83.3607 37.3272 83.5645 37.2244C83.6399 37.1858 83.8416 37.098 84.083 37.098C84.2377 37.098 84.5261 37.1235 84.8562 37.3772C85.3389 37.7336 85.4276 38.1758 85.5162 38.734H82.6253ZM86.9982 39.6853C86.9982 39.1771 86.987 38.6313 86.8606 38.1504C86.8097 37.9853 86.7078 37.6318 86.4419 37.2518C85.6934 36.1599 84.577 36.0469 84.1094 36.0469C82.7517 36.0469 81.7014 36.8709 81.2959 38.1391C81.1168 38.7217 81.1055 39.2931 81.1055 39.5081C81.1055 41.3448 81.8409 42.1197 82.5366 42.5243C83.1703 42.891 83.7793 42.9297 84.0584 42.9297C85.022 42.9297 85.946 42.512 86.4927 41.7249C86.7077 41.409 86.885 40.9772 86.9227 40.8894L85.5669 40.6735C85.516 40.8272 85.4651 40.9526 85.3764 41.093C85.0973 41.4986 84.6278 41.7511 84.1469 41.7511C83.9564 41.7511 83.6397 41.7247 83.2984 41.422C82.7515 40.9402 82.7137 40.2943 82.6893 40.0644C82.6762 39.9399 82.6629 39.8117 82.6629 39.6986L86.9982 39.6853Z" fill="#738087"/>
<path fill-rule="evenodd" clip-rule="evenodd" d="M88.2949 36.188V42.7549L89.7788 42.8039V39.3061C89.8147 38.6224 89.8675 38.0012 90.4502 37.5571C90.7556 37.3043 91.0574 37.2648 91.1987 37.2648C91.5401 37.2648 91.7569 37.4176 91.8568 37.5052C92.2491 37.8484 92.2491 38.3179 92.2622 38.8242V42.8039H93.6841V38.3302C93.6709 38.2547 93.6709 37.887 93.5935 37.5938C93.5182 37.2778 93.4031 37.0621 93.3522 36.9611C93.2259 36.7451 93.0618 36.5424 92.8714 36.4029C92.6942 36.2756 92.3019 36.0484 91.6928 36.0352C90.6539 36.0352 90.171 36.6821 89.9693 37.0119C89.8543 37.1873 89.7279 37.4296 89.6506 37.6078V36.1879H88.2949V36.188Z" fill="#738087"/>
<path d="M100.531 38.3685C100.505 38.2403 100.416 37.8094 100.228 37.4294C99.6185 36.1745 98.3759 36.0586 97.9082 36.0586C96.626 36.0586 95.9415 36.8204 95.6757 37.2022C95.042 38.0752 95.0156 39.1285 95.0156 39.4839C95.0156 40.686 95.4229 41.4619 95.702 41.8533C95.8792 42.1078 96.0433 42.2605 96.1319 42.3359C96.7787 42.8686 97.5763 42.9177 97.8555 42.9177C98.6286 42.9177 99.1359 42.6404 99.3772 42.4877C99.4658 42.4245 99.6676 42.2717 99.8844 42.019C100.367 41.4232 100.467 40.8282 100.518 40.5483L99.3396 40.4341C99.1624 40.8536 98.9964 41.2205 98.6154 41.474C98.3627 41.6381 98.1233 41.6512 97.9819 41.6512C97.5651 41.6512 97.2974 41.474 97.1842 41.3731C96.7015 40.978 96.5751 40.2181 96.5751 39.6099C96.5751 38.7227 96.7279 38.24 96.9316 37.911C97.2729 37.3926 97.7161 37.3161 97.9706 37.3161C98.2119 37.3161 98.7569 37.3926 99.0605 37.9865C99.1491 38.1647 99.2 38.3562 99.2377 38.5588L100.531 38.3685Z" fill="#738087"/>
<path fill-rule="evenodd" clip-rule="evenodd" d="M102.834 38.734C102.872 38.3908 102.896 38.2899 102.972 38.1145C103.176 37.5677 103.568 37.3272 103.771 37.2244C103.847 37.1858 104.051 37.098 104.292 37.098C104.443 37.098 104.735 37.1235 105.063 37.3772C105.546 37.7336 105.635 38.1758 105.725 38.734H102.834ZM107.207 39.6853C107.207 39.1771 107.196 38.6313 107.068 38.1504C107.017 37.9853 106.915 37.6318 106.649 37.2518C105.902 36.1599 104.786 36.0469 104.318 36.0469C102.961 36.0469 101.908 36.8709 101.503 38.1391C101.324 38.7217 101.312 39.2931 101.312 39.5081C101.312 41.3448 102.048 42.1197 102.746 42.5243C103.377 42.891 103.988 42.9297 104.265 42.9297C105.231 42.9297 106.155 42.512 106.7 41.7249C106.915 41.409 107.094 40.9772 107.132 40.8894L105.774 40.6735C105.725 40.8272 105.674 40.9526 105.584 41.093C105.304 41.4986 104.837 41.7511 104.356 41.7511C104.164 41.7511 103.847 41.7247 103.506 41.422C102.961 40.9402 102.923 40.2943 102.897 40.0644C102.885 39.9399 102.872 39.8117 102.872 39.6986L107.207 39.6853Z" fill="#738087"/>
<path d="M110.184 41.082H108.562V42.78H110.184V41.082Z" fill="#738087"/>
</g>
<defs>
<clipPath id="clip0">
<rect width="110.239" height="45" fill="white"/>
</clipPath>
</defs>
</svg>
