<svg width="126" height="50" viewBox="0 0 126 50" fill="none" xmlns="http://www.w3.org/2000/svg">
<path fill-rule="evenodd" clip-rule="evenodd" d="M2.91406 25C2.91406 37.2906 28.12 47.5 63.0677 47.5C98.0152 47.5 123.203 37.2906 123.203 25C123.203 12.7094 97.9973 2.5 63.0677 2.5C28.1379 2.5 2.91406 12.7094 2.91406 25Z" fill="#FBD914"/>
<path d="M58.6073 32.5058C59.0024 33.0655 59.4334 33.5901 59.9362 34.0623H46.3771C46.3771 33.5376 45.8564 32.4708 45.2816 31.6315C44.707 30.792 41.6 26.1927 41.6 26.1927V32.5058C41.6 33.0305 41.6 33.5376 41.8694 34.0623H30.5733C30.8427 33.5376 30.8427 33.0305 30.8427 32.5058V17.501C30.8427 16.9763 30.8427 16.4692 30.5733 15.9446H41.8694C41.6 16.4692 41.6 16.9763 41.6 17.501V24.0591C41.6 24.0591 45.2098 19.4772 46.0359 18.4103C46.6645 17.606 47.4368 16.4691 47.4368 15.9446H59.2179C58.4097 16.4692 57.5118 17.4136 56.7754 18.288C56.1288 19.0575 52.4653 23.412 52.4653 23.412C52.4653 23.412 57.8888 31.4741 58.6072 32.5058H58.6073ZM62.1631 17.501V32.5058C62.1631 33.0305 62.1631 33.5376 61.8937 34.0623H83.696V29.0257C83.1572 29.288 82.6363 29.288 82.0976 29.288H72.9206V26.9096H81.7384V23.0971H72.9206V20.7013H82.0976C82.6364 20.7013 83.1572 20.7013 83.696 20.9462V15.9271H61.8937C62.1631 16.4692 62.1631 16.9763 62.1631 17.501ZM113.903 32.5058C114.083 33.083 114.388 33.6076 114.783 34.0623H102.966C103.02 33.5376 102.822 33.0305 102.607 32.5058C102.607 32.5058 102.427 32.0861 102.176 31.4741L102.068 31.2117H95.2615L95.1538 31.4915C95.1538 31.4915 94.9562 31.9987 94.7766 32.5233C94.5971 33.048 94.3994 33.5551 94.4714 34.0797H85.1506C85.5313 33.621 85.8182 33.0922 85.9947 32.5233L91.5799 17.5185C91.7775 16.9938 91.975 16.4867 91.9032 15.9621H107.653C107.51 16.4867 107.797 16.9938 107.995 17.5185C108.461 18.6552 113.508 31.4915 113.903 32.5058ZM100.577 27.3818L98.9252 23.1846C98.7815 22.8 98.6558 22.3977 98.566 21.9955C98.4941 22.4007 98.3859 22.7987 98.2427 23.1846C98.1888 23.3596 97.4884 25.1958 96.6802 27.3818H100.577ZM25.2214 15.9446H12.9375C13.2069 16.4692 13.2069 16.9763 13.2069 17.501V32.5058C13.2069 33.0305 13.2069 33.5376 12.9375 34.0623H25.2214C24.952 33.5376 24.952 33.0305 24.952 32.5058V17.501C24.952 16.9763 24.952 16.4692 25.2214 15.9446ZM110.132 17.3786C110.078 16.102 111.101 15.0352 112.412 15.0002H112.574C113.903 14.9827 114.998 15.997 115.016 17.2911V17.3786C115.052 18.6902 113.993 19.792 112.628 19.827C111.281 19.862 110.149 18.8301 110.114 17.501C110.132 17.466 110.132 17.4135 110.132 17.3785V17.3786ZM110.616 17.3786C110.616 18.4278 111.496 19.2848 112.574 19.2848C113.652 19.2848 114.531 18.4278 114.531 17.3786C114.531 16.3293 113.651 15.4723 112.574 15.4723C111.532 15.4373 110.652 16.2243 110.616 17.2386V17.3786ZM112.089 18.7951H111.658V15.9271H112.754C113.274 15.9446 113.67 16.3467 113.67 16.854C113.67 17.2037 113.472 17.5185 113.149 17.6933L113.777 18.7951H113.292L112.718 17.7808H112.089V18.7951ZM112.089 17.3786H112.682C112.969 17.3961 113.221 17.1861 113.221 16.9063C113.221 16.6266 113.023 16.3817 112.736 16.3817H112.089V17.3786Z" fill="#0058A3"/>
</svg>
