<svg width="130" height="23" viewBox="0 0 130 23" fill="none" xmlns="http://www.w3.org/2000/svg">
<path d="M19.7102 0L7.01597 10.756V0H0V21.8669H7.01597V10.756L19.7102 21.8669H29.5653L16.0794 10.756L29.5653 0H19.7102Z" fill="#FF5D00"/>
<path d="M54.3534 12.9673C54.3534 15.7518 53.3161 16.5708 50.4496 16.5708H43.5155C40.6491 16.5708 39.6117 15.7518 39.6117 12.9673V0H32.623V14.223C32.623 19.6556 35.5441 22.2491 41.9595 22.2491H51.9784C58.4211 22.2764 61.3421 19.6829 61.3421 14.223V0H54.3534V12.9673Z" fill="#FF5D00"/>
<path d="M66.8027 0V21.8669H73.8187V10.756V0H66.8027Z" fill="#FF5D00"/>
<path d="M116.269 0H110.099L96.3677 21.8396L82.9091 10.756L96.395 0H86.5399L73.8184 10.756L86.5399 21.8669H96.3677H96.395H104.394L106.714 18.0723H119.654L121.975 21.8669H130.001L116.269 0ZM109.117 13.7043L113.184 6.74298L117.252 13.7043H109.117Z" fill="#FF5D00"/>
<path d="M7.01597 0H0V21.8669H7.01597V0Z" fill="#FF5D00"/>
<path d="M73.8187 0H66.8027V21.8669H73.8187V0Z" fill="#FF5D00"/>
</svg>
