<svg width="131" height="36" viewBox="0 0 131 36" fill="none" xmlns="http://www.w3.org/2000/svg">
<path fill-rule="evenodd" clip-rule="evenodd" d="M48.498 7.33669C47.7458 5.8903 48.544 3.98335 50.2807 3.08142C52.0181 2.17947 54.0363 2.61954 54.7881 4.06866C55.5392 5.51573 54.7417 7.42129 53.005 8.32392C51.2683 9.22655 49.2491 8.78514 48.498 7.33669Z" fill="#899197"/>
<path fill-rule="evenodd" clip-rule="evenodd" d="M59.0057 7.33669C58.2533 5.8903 59.0528 3.98335 60.7892 3.08142C62.5259 2.17947 64.5443 2.61954 65.2966 4.06866C66.0481 5.51573 65.2498 7.42129 63.5128 8.32392C61.7768 9.22655 59.758 8.78514 59.0057 7.33669Z" fill="#899197"/>
<path fill-rule="evenodd" clip-rule="evenodd" d="M123.363 11.0156L117.055 28.7633H122.895L129.237 11.0279L123.363 11.0156Z" fill="#899197"/>
<path fill-rule="evenodd" clip-rule="evenodd" d="M114.799 11.0039H108.974L102.664 28.7965H115.099L116.373 25.3204L109.785 25.3102L114.799 11.0039Z" fill="#899197"/>
<path fill-rule="evenodd" clip-rule="evenodd" d="M97.1648 17.3233C96.7191 17.6774 96.2789 18.0076 94.8684 18.0349L91.742 18.054L92.9926 14.1795L96.1552 14.1842C97.0314 14.1842 97.6042 14.3139 97.8809 15.0105C98.1568 15.7091 97.6091 16.9706 97.1648 17.3233ZM94.9599 24.8507C94.6581 25.0261 94.0119 25.2157 92.7969 25.2143L89.1647 25.2103L90.6696 21.1515L94.1215 21.1392C95.9198 21.131 96.1986 22.3625 96.0211 23.2679C95.8423 24.1725 95.2638 24.6747 94.9599 24.8507ZM99.2034 19.8129C100.36 19.4718 101.162 19.2091 102.231 18.1932C103.298 17.1773 103.816 15.1687 103.545 13.6678C103.283 12.2173 101.796 11.0151 99.2921 11.0117L88.7784 11.0199L82.4844 28.7853H94.5805C96.0994 28.7853 97.2479 28.5445 98.4586 28.0846C99.6715 27.6248 100.921 26.5468 101.501 24.5874C102.114 22.5147 101.35 20.5156 99.2034 19.8129Z" fill="#899197"/>
<path fill-rule="evenodd" clip-rule="evenodd" d="M79.1825 10.9688L75.0899 22.5338C74.48 23.9863 73.8729 24.3861 73.293 24.7197C72.7131 25.052 71.8867 25.2089 71.2733 25.1823C70.6515 25.1551 69.9405 25.196 69.2494 24.3977C68.6047 23.6527 68.9676 22.1108 69.5025 20.8411L73.0108 10.9688H67.4517L63.6795 21.5534C63.37 22.5563 62.8799 24.2203 63.5505 25.9416C64.2212 27.6657 65.7392 28.4886 67.1119 28.8836C68.4887 29.282 69.6813 29.2861 71.8154 29.2043C73.9497 29.1196 76.1902 28.4831 77.3737 27.736C78.5572 26.993 79.2593 26.2657 80.2228 24.3541L85.0147 10.9688H79.1825Z" fill="#899197"/>
<path fill-rule="evenodd" clip-rule="evenodd" d="M50.5092 20.8795L54.8579 14.5365L55.1066 20.8795H50.5092ZM52.0136 10.9922L39.8008 28.7869H45.0419L47.7856 24.8414H55.2677L55.4263 28.7869H61.1119L60.4272 10.9922H52.0136Z" fill="#899197"/>
<path fill-rule="evenodd" clip-rule="evenodd" d="M46.3648 14.9493L47.9886 10.9922H30.9754L29.5352 14.8183L35.2726 14.8264L30.36 28.8156H36.2434L41.1902 14.982L46.3648 14.9493Z" fill="#899197"/>
<path fill-rule="evenodd" clip-rule="evenodd" d="M32.8418 8.69298C30.8557 7.45264 28.0704 6.53224 25.3786 6.19796C22.7426 5.86842 18.9349 6.69327 18.4338 9.46596C17.4994 14.641 30.5023 15.9529 28.883 24.9171C27.4564 32.8198 19.5299 35.2063 11.4672 34.1966C7.93039 33.7545 4.10086 32.2712 1.24219 30.6154L4.01763 25.5782C6.338 27.0895 9.46821 28.5284 12.6343 28.9227C16.1677 29.3655 19.7158 28.31 20.6068 24.9022C21.9007 19.9571 8.05045 18.3354 10.0601 9.47349C11.5873 2.73958 19.0646 0.299106 26.1253 1.18127C29.3452 1.58448 32.503 2.44894 35.3123 3.88782L32.8418 8.69298Z" fill="#899197"/>
</svg>
