<?xml version="1.0" encoding="utf-8"?><svg xmlns="http://www.w3.org/2000/svg" xmlns:xlink="http://www.w3.org/1999/xlink"><symbol viewBox="0 0 22 24" id="add" xmlns="http://www.w3.org/2000/svg"><path d="M1.696 14.792l1.775-1.775 7.987-7.987a3.765 3.765 0 015.325 5.324l-7.987 7.99a.837.837 0 11-1.184-1.184L15.6 9.171a2.091 2.091 0 10-2.958-2.958L4.652 14.2l-1.775 1.775A3.766 3.766 0 108.204 21.3l1.479-1.48 8.283-8.282.592-.592a5.44 5.44 0 00-7.692-7.691L1.992 12.13a.837.837 0 01-1.184-1.184l8.875-8.874A7.112 7.112 0 0119.74 12.13l-8.875 8.874-1.48 1.48a5.44 5.44 0 01-7.69-7.692z"/></symbol><symbol viewBox="0 0 12 24" id="arrow-bottom" xmlns="http://www.w3.org/2000/svg"><path d="M6.664 23.725l4.876-4.9a.938.938 0 00-1.33-1.322l-3.272 3.289V.937a.937.937 0 10-1.875 0v19.855l-3.273-3.29a.938.938 0 10-1.33 1.324l4.876 4.898v.001a.938.938 0 001.328 0z"/></symbol><symbol viewBox="0 0 24 24" id="arrow-left" xmlns="http://www.w3.org/2000/svg"><g clip-path="url(#cclip0)"><path d="M.275 11.336l4.9-4.876a.938.938 0 011.322 1.33l-3.289 3.272h19.854a.937.937 0 110 1.876H3.209l3.29 3.272a.937.937 0 11-1.324 1.33L.276 12.665l-.001-.001a.938.938 0 010-1.328z"/></g><defs><clipPath id="cclip0"><path transform="matrix(-1 0 0 1 24 0)" d="M0 0h24v24H0z"/></clipPath></defs></symbol><symbol viewBox="0 0 24 12" id="arrow-r" xmlns="http://www.w3.org/2000/svg"><path d="M23.725 5.336L18.824.46a.938.938 0 00-1.322 1.33l3.289 3.272H.937a.937.937 0 100 1.875h19.855l-3.29 3.273a.938.938 0 101.324 1.33l4.898-4.876h.001a.938.938 0 000-1.328z"/></symbol><symbol viewBox="0 0 24 24" id="arrow-right" xmlns="http://www.w3.org/2000/svg"><g clip-path="url(#eclip0)"><path d="M23.725 11.336l-4.9-4.876a.938.938 0 00-1.322 1.33l3.289 3.272H.937a.937.937 0 100 1.876h19.855l-3.29 3.272a.938.938 0 101.324 1.33l4.898-4.875.001-.001a.938.938 0 000-1.328z"/></g><defs><clipPath id="eclip0"><path d="M0 0h24v24H0z"/></clipPath></defs></symbol><symbol viewBox="0 0 22 24" id="basket" xmlns="http://www.w3.org/2000/svg"><g clip-path="url(#fclip0)"><path d="M10.363 18.443a2.046 2.046 0 00-2.045 2.042 2.046 2.046 0 004.09 0 2.046 2.046 0 00-2.045-2.042zm6.134 0a2.046 2.046 0 00-2.045 2.042 2.046 2.046 0 004.089 0 2.046 2.046 0 00-2.044-2.042zm3.978-8.199L7.413 6.891a.614.614 0 00-.75.73L8.67 16.4h-.786L5.482 5.895a.613.613 0 00-.474-.464l-4.27-.882A.614.614 0 00.489 5.75l3.885.802L6.797 17.15a.613.613 0 00.598.477h12.07a.615.615 0 00.607-.53l.858-6.175a.613.613 0 00-.455-.678zm-8.14 3.91a.613.613 0 01-1.227 0v-2.696a.613.613 0 011.227 0v2.696zm2.625 0a.613.613 0 01-1.227 0v-1.88a.613.613 0 011.227 0v1.88zm2.625 0a.613.613 0 01-1.227 0v-1.226a.613.613 0 011.227 0v1.226z"/></g><path fill-rule="evenodd" clip-rule="evenodd" d="M16.268 4.568a2.996 2.996 0 00-1.693-.523c-.627 0-1.21.193-1.693.523-.28-.843-.492-1.752-.492-2.383C12.39.98 13.37 0 14.575 0s2.185.98 2.185 2.185c0 .631-.212 1.54-.492 2.383zm-4.722 2.274l.024.006v-.011l-.024.005zm4.972 1.217c-1.333-.33-2.766-.681-4.129-1.013a2.185 2.185 0 114.129 1.013zm4.436 1.103c-.866-.217-2.155-.538-3.618-.9a2.995 2.995 0 00.243-1.425c.87.18 1.762.45 2.308.765.596.344.969.928 1.067 1.56zM9.869 6.439c-.36-.086-.706-.167-1.03-.243a2.19 2.19 0 01-.376-2.667 2.188 2.188 0 013.147-.7c.098.738.338 1.599.61 2.353a3.01 3.01 0 00-.449.774c-.628.113-1.305.278-1.902.483zm10.124.075a3.43 3.43 0 01-.217.114c-.696-.295-1.587-.526-2.397-.672a3.01 3.01 0 00-.449-.774c.262-.727.494-1.553.599-2.273.095-.067.189-.128.278-.18a2.188 2.188 0 012.986.8 2.188 2.188 0 01-.8 2.985z"/><defs><clipPath id="fclip0"><path transform="translate(0 3.064)" d="M0 0h20.936v20.936H0z"/></clipPath></defs></symbol><symbol viewBox="0 0 344.96 344.96" id="check" xmlns="http://www.w3.org/2000/svg"><g data-name="Слой 2"><path d="M321.85 86.24l-40-23.11-23.1-40H212.5L172.48 0l-40 23.11H86.24l-23.11 40-40 23.1v46.21L0 172.48l23.11 40v46.21l40 23.11 23.11 40h46.21l40 23.1 40-23.11h46.21l23.11-40 40-23.11V212.5l23.11-40-23.11-40V86.24zM156.91 243.07a16.79 16.79 0 01-23.34 0l-50.45-50.44a16.19 16.19 0 010-22.89l13.35-13.35a16.19 16.19 0 0122.89 0l25.87 25.87 80.34-80.35a16.19 16.19 0 0122.89 0l13.35 13.35a16.19 16.19 0 010 22.89z" data-name="Capa 1"/></g></symbol><symbol viewBox="0 0 8 12" id="chevron-l" xmlns="http://www.w3.org/2000/svg"><path d="M7.41 10.59L2.83 6l4.58-4.59L6 0 0 6l6 6 1.41-1.41z"/></symbol><symbol viewBox="0 0 8 12" id="chevron-r" xmlns="http://www.w3.org/2000/svg"><path d="M.59 10.59L5.17 6 .59 1.41 2 0l6 6-6 6-1.41-1.41z"/></symbol><symbol viewBox="0 0 20 20" id="fb" xmlns="http://www.w3.org/2000/svg"><path d="M15 .004L12.404 0C9.492 0 7.61 1.932 7.61 4.922v2.27H5a.408.408 0 00-.408.407v3.288c0 .226.183.408.408.408h2.61v8.297c0 .226.182.408.408.408h3.402a.408.408 0 00.408-.408v-8.297h3.049a.408.408 0 00.408-.408V7.6a.408.408 0 00-.407-.408h-3.05V5.268c0-.925.22-1.394 1.425-1.394L15 3.873a.408.408 0 00.407-.408V.412A.408.408 0 0015 .004z"/></symbol><symbol viewBox="0 0 20 20" id="instagram" xmlns="http://www.w3.org/2000/svg"><path d="M14.48 0H5.52A5.525 5.525 0 000 5.52v8.96A5.525 5.525 0 005.52 20h8.96A5.526 5.526 0 0020 14.48V5.52A5.525 5.525 0 0014.48 0zm3.745 14.48a3.75 3.75 0 01-3.744 3.745H5.519a3.749 3.749 0 01-3.745-3.744V5.519A3.749 3.749 0 015.52 1.774h8.961a3.75 3.75 0 013.745 3.745v8.962z"/><path d="M10 4.848A5.16 5.16 0 004.847 10 5.16 5.16 0 0010 15.154a5.16 5.16 0 005.154-5.153A5.16 5.16 0 0010 4.848zm0 8.532A3.383 3.383 0 016.621 10a3.383 3.383 0 013.38-3.379A3.383 3.383 0 0113.379 10 3.383 3.383 0 0110 13.38zm5.37-10.036a1.306 1.306 0 00-1.302 1.301 1.305 1.305 0 001.302 1.301c.343 0 .678-.14.92-.38a1.307 1.307 0 000-1.84 1.307 1.307 0 00-.92-.382z"/></symbol><symbol viewBox="0 0 40 30" id="mail" xmlns="http://www.w3.org/2000/svg"><path d="M36.484.938H3.516A3.52 3.52 0 000 4.453v21.094a3.52 3.52 0 003.516 3.515h32.968A3.52 3.52 0 0040 25.547V4.453A3.52 3.52 0 0036.484.937zm-.492 2.343L22.486 16.716A3.493 3.493 0 0120 17.746c-.94 0-1.822-.366-2.488-1.032L4.008 3.281h31.984zM2.344 25.07V4.932l10.128 10.074L2.344 25.07zm1.665 1.649l10.124-10.06 1.724 1.714A5.82 5.82 0 0020 20.09a5.82 5.82 0 004.141-1.714l1.726-1.717L35.99 26.72H4.01zm33.647-1.65L27.528 15.007 37.656 4.932V25.07z"/></symbol><symbol viewBox="0 0 16 12" id="mail-bg" xmlns="http://www.w3.org/2000/svg"><path d="M14 0H2C1.175 0 .507.675.507 1.5l-.007 9c0 .825.675 1.5 1.5 1.5h12c.825 0 1.5-.675 1.5-1.5v-9C15.5.675 14.825 0 14 0zm0 3L8 6.75 2 3V1.5l6 3.75 6-3.75V3z"/></symbol><symbol viewBox="0 0 60 60" id="map" xmlns="http://www.w3.org/2000/svg"><path d="M30 0C18.018 0 8.27 9.748 8.27 21.73c0 14.87 19.447 36.699 20.274 37.62a1.957 1.957 0 002.912 0c.828-.921 20.274-22.75 20.274-37.62C51.73 9.748 41.982 0 30 0zm0 32.662c-6.028 0-10.932-4.904-10.932-10.932 0-6.029 4.904-10.933 10.932-10.933 6.029 0 10.933 4.904 10.933 10.933 0 6.028-4.904 10.932-10.933 10.932z"/></symbol><symbol viewBox="0 0 20 20" id="search" xmlns="http://www.w3.org/2000/svg"><path d="M19.361 18.217l-4.76-4.95a8.05 8.05 0 001.895-5.192C16.496 3.623 12.873 0 8.42 0 3.968 0 .346 3.623.346 8.075c0 4.453 3.622 8.075 8.075 8.075a7.99 7.99 0 004.626-1.461l4.796 4.988c.2.208.47.323.76.323a1.054 1.054 0 00.76-1.783zM8.421 2.107a5.975 5.975 0 015.968 5.968 5.975 5.975 0 01-5.968 5.969 5.975 5.975 0 01-5.969-5.969 5.975 5.975 0 015.969-5.968z"/></symbol><symbol viewBox="0 0 20 20" id="telegram" xmlns="http://www.w3.org/2000/svg"><g clip-path="url(#pclip0)"><path d="M7.848 12.652l-.331 4.654c.473 0 .678-.204.924-.448l2.22-2.12 4.598 3.367c.843.47 1.437.223 1.665-.776l3.018-14.143v-.001c.268-1.247-.45-1.734-1.272-1.428L.928 8.549C-.282 9.02-.264 9.694.723 10l4.535 1.41 10.536-6.592c.496-.328.947-.146.576.182l-8.522 7.652z"/></g><defs><clipPath id="pclip0"><path d="M0 0h20v20H0z"/></clipPath></defs></symbol><symbol viewBox="0 0 20 20" id="twitter" xmlns="http://www.w3.org/2000/svg"><g clip-path="url(#qclip0)"><path d="M20 3.799a8.549 8.549 0 01-2.363.647 4.077 4.077 0 001.804-2.266 8.192 8.192 0 01-2.6.992A4.099 4.099 0 009.75 5.976c0 .325.027.638.095.935-3.409-.166-6.425-1.8-8.451-4.288A4.128 4.128 0 00.83 4.694c0 1.42.732 2.679 1.821 3.407A4.05 4.05 0 01.8 7.597v.045a4.119 4.119 0 003.285 4.03 4.09 4.09 0 01-1.075.134c-.262 0-.527-.015-.776-.07.531 1.624 2.038 2.818 3.831 2.856a8.238 8.238 0 01-5.084 1.75A7.67 7.67 0 010 16.284a11.543 11.543 0 006.29 1.84c7.545 0 11.67-6.25 11.67-11.668 0-.18-.006-.356-.015-.53A8.179 8.179 0 0020 3.8z"/></g><defs><clipPath id="qclip0"><path d="M0 0h20v20H0z"/></clipPath></defs></symbol><symbol viewBox="0 0 16 16" id="viber" xmlns="http://www.w3.org/2000/svg"><path d="M8 1.335c-1.071.013-3.374.19-4.662 1.37-.958.948-1.292 2.35-1.331 4.084-.033 1.728-.072 4.973 3.058 5.856v1.346s-.02.538.337.648c.438.14.688-.275 1.105-.72l.778-.879c2.142.178 3.782-.232 3.97-.293.435-.139 2.883-.451 3.283-3.696.41-3.351-.2-5.463-1.301-6.418h-.007c-.332-.306-1.668-1.279-4.652-1.29 0 0-.222-.014-.578-.008zm.037.942a7.02 7.02 0 01.488.011c2.527.007 3.732.767 4.017 1.023.927.794 1.405 2.697 1.055 5.495-.332 2.713-2.317 2.885-2.685 3.002-.156.05-1.6.406-3.42.289 0 0-1.356 1.634-1.78 2.055-.067.074-.146.095-.196.085-.071-.018-.093-.107-.089-.229l.013-2.233c-2.655-.733-2.498-3.5-2.47-4.946.033-1.446.304-2.628 1.113-3.43 1.088-.982 3.043-1.115 3.953-1.122zm.2 1.446a.166.166 0 100 .332 3.136 3.136 0 012.242.883c.606.588.9 1.378.912 2.411 0 .092.074.167.167.167V7.51a.167.167 0 00.168-.165 3.588 3.588 0 00-1.009-2.646c-.66-.645-1.496-.977-2.48-.977zm-2.198.382a.523.523 0 00-.342.067H5.69a2.61 2.61 0 00-.637.523 1.003 1.003 0 00-.256.525.71.71 0 00.026.302l.01.006c.172.504.396.988.67 1.444a8.48 8.48 0 001.29 1.762l.015.022.024.017.015.018.017.015c.532.505 1.127.94 1.769 1.295.734.4 1.18.588 1.447.667v.004c.078.024.15.034.221.034.228-.016.444-.109.613-.262a2.53 2.53 0 00.517-.638v-.004c.128-.241.085-.469-.1-.623-.37-.323-.77-.61-1.195-.857-.285-.155-.574-.061-.69.095l-.25.315c-.129.156-.361.134-.361.134l-.007.004C7.093 8.527 6.63 6.772 6.63 6.772s-.022-.239.139-.36l.312-.252c.15-.122.254-.41.094-.695a7.498 7.498 0 00-.856-1.194.475.475 0 00-.28-.167zm2.486.495c-.221 0-.221.334.003.334A2.098 2.098 0 0110 5.572 1.94 1.94 0 0110.5 7a.168.168 0 00.167.165l.007.009a.169.169 0 00.167-.167c.015-.662-.191-1.218-.595-1.663C9.84 4.9 9.273 4.65 8.549 4.6h-.024zm.274.898c-.228-.006-.236.335-.01.341.55.029.816.306.851.877a.166.166 0 00.165.163h.007a.168.168 0 00.16-.178c-.039-.744-.445-1.164-1.166-1.202H8.8z"/></symbol><symbol viewBox="0 0 20 20" id="vk" xmlns="http://www.w3.org/2000/svg"><g clip-path="url(#sclip0)"><path d="M19.822 14.471c-.054-.09-.386-.812-1.987-2.297-1.675-1.556-1.45-1.303.568-3.992 1.229-1.638 1.72-2.638 1.566-3.065-.146-.408-1.05-.3-1.05-.3l-3.005.017s-.223-.03-.389.07c-.161.097-.265.322-.265.322s-.476 1.267-1.111 2.345c-1.339 2.274-1.875 2.394-2.094 2.252-.509-.328-.381-1.322-.381-2.027 0-2.204.333-3.123-.652-3.36-.327-.08-.567-.132-1.404-.14-1.072-.012-1.98.003-2.495.255-.342.167-.606.54-.445.562.199.026.65.121.888.446.309.42.297 1.362.297 1.362s.178 2.594-.413 2.916c-.407.222-.963-.23-2.157-2.294C4.682 6.487 4.22 5.318 4.22 5.318s-.088-.217-.247-.334a1.246 1.246 0 00-.463-.186l-2.857.018s-.43.012-.587.198c-.14.167-.011.51-.011.51s2.238 5.233 4.77 7.872c2.324 2.42 4.962 2.26 4.962 2.26h1.195s.361-.04.545-.238c.17-.183.164-.525.164-.525s-.024-1.604.721-1.84c.734-.233 1.677 1.55 2.675 2.236.755.519 1.33.405 1.33.405l2.67-.038s1.398-.086.736-1.185z"/></g><defs><clipPath id="sclip0"><path d="M0 0h20v20H0z"/></clipPath></defs></symbol><symbol viewBox="0 0 16 16" id="whatsapp" xmlns="http://www.w3.org/2000/svg"><path fill-rule="evenodd" clip-rule="evenodd" d="M12.269 3.755A5.947 5.947 0 008.035 2 5.994 5.994 0 002.05 7.985a5.98 5.98 0 00.799 2.992L2 14.077l3.173-.832c.877.477 1.86.728 2.86.728h.002a5.993 5.993 0 005.533-8.276 5.953 5.953 0 00-1.3-1.942zm-4.234 9.208h-.002c-.89 0-1.765-.24-2.532-.694l-.181-.108-1.883.494.502-1.835-.118-.188a4.965 4.965 0 01-.76-2.647 4.982 4.982 0 016.88-4.597c.604.25 1.152.618 1.613 1.081a4.946 4.946 0 011.455 3.52 4.982 4.982 0 01-4.974 4.974zm2.729-3.726c-.15-.075-.885-.436-1.022-.486-.137-.05-.236-.075-.336.074-.1.15-.387.486-.474.586-.087.1-.175.112-.324.038-.15-.075-.631-.233-1.203-.742a4.505 4.505 0 01-.832-1.036c-.087-.15-.009-.231.066-.306.068-.066.15-.174.224-.262.075-.087.1-.149.15-.249.05-.1.025-.187-.013-.262-.037-.075-.337-.811-.461-1.11-.121-.29-.244-.252-.336-.256a6.418 6.418 0 00-.286-.005.55.55 0 00-.4.186c-.137.15-.523.512-.523 1.248s.536 1.447.61 1.547c.075.1 1.055 1.61 2.555 2.258.358.154.636.246.853.315.358.114.684.098.942.06.287-.043.885-.362 1.01-.711.124-.35.124-.649.087-.711-.038-.063-.138-.101-.287-.176z"/></symbol><symbol viewBox="0 0 20 20" id="youtube" xmlns="http://www.w3.org/2000/svg"><path d="M18.979 5.312a2.349 2.349 0 00-1.653-1.653c-1.467-.401-7.336-.401-7.336-.401s-5.869 0-7.336.386A2.397 2.397 0 001 5.312C.615 6.779.615 9.822.615 9.822s0 3.058.386 4.51a2.35 2.35 0 001.653 1.652c1.483.402 7.336.402 7.336.402s5.87 0 7.336-.386a2.349 2.349 0 001.653-1.653c.386-1.467.386-4.51.386-4.51s.016-3.058-.386-4.525zM8.12 12.632v-5.62L13 9.822l-4.88 2.812z"/></symbol><symbol viewBox="0 0 34 34" id="zoom" xmlns="http://www.w3.org/2000/svg"><path d="M9.917 19.832H7.084v7.083h7.083v-2.833h-4.25v-4.25zm-2.833-5.667h2.833v-4.25h4.25V7.082H7.084v7.083zm17 9.917h-4.25v2.833h7.083v-7.083h-2.834v4.25zm-4.25-17v2.833h4.25v4.25h2.833V7.082h-7.084z"/></symbol></svg>