<svg width="22" height="24" viewBox="0 0 22 24" fill="none" xmlns="http://www.w3.org/2000/svg">
<path d="M1.69561 14.7918L3.47063 13.0168L11.458 5.02984C12.93 3.56881 15.3062 3.57322 16.7727 5.03976C18.2393 6.5063 18.2437 8.88249 16.7827 10.3545L8.7957 18.3439C8.46903 18.6707 7.93915 18.6707 7.61229 18.3439C7.28562 18.017 7.28562 17.4873 7.61229 17.1605L15.5992 9.17113C16.4161 8.35427 16.4161 7.03012 15.5992 6.21325C14.7824 5.39638 13.4582 5.39638 12.6414 6.21325L4.65202 14.2002L2.877 15.975C1.40642 17.4462 1.40697 19.8308 2.87792 21.3012C4.34905 22.7716 6.73351 22.7712 8.20409 21.3001L9.68294 19.8207L17.9659 11.5378L18.5577 10.9462C20.6261 8.81304 20.5998 5.41476 18.4989 3.31361C16.3977 1.21265 12.9995 1.18638 10.8663 3.25482L1.99178 12.1296C1.78031 12.3409 1.47219 12.4233 1.18355 12.346C0.894728 12.2686 0.669106 12.0432 0.591755 11.7544C0.514404 11.4656 0.597082 11.1576 0.808372 10.9462L9.68294 2.07159C12.4622 -0.695026 16.9565 -0.689881 19.7293 2.08317C22.5024 4.85603 22.5075 9.35027 19.7409 12.1296L10.8663 21.0041L9.38529 22.4835C7.24942 24.5351 3.86455 24.5009 1.77076 22.4064C-0.323225 20.312 -0.35648 16.9271 1.69561 14.7918Z" fill="#00B2FF"/>
</svg>
