<svg width="12" height="24" viewBox="0 0 12 24" fill="none" xmlns="http://www.w3.org/2000/svg">
<path d="M6.66362 23.725C6.6639 23.7247 6.66423 23.7245 6.66451 23.7242L11.5395 18.8256C11.9047 18.4586 11.9033 17.865 11.5363 17.4997C11.1693 17.1345 10.5758 17.1359 10.2105 17.5028L6.93751 20.7918L6.93751 0.9375C6.93751 0.419719 6.51779 -2.31439e-07 6.00001 -2.54072e-07C5.48223 -2.76705e-07 5.06251 0.419718 5.06251 0.9375L5.06251 20.7917L1.78952 17.5029C1.42427 17.1359 0.830692 17.1345 0.463708 17.4997C0.0966303 17.865 0.0953657 18.4587 0.460521 18.8256L5.33551 23.7242C5.33579 23.7245 5.33612 23.7247 5.3364 23.7251C5.70287 24.0922 6.29837 24.0911 6.66362 23.725Z" fill="#00B2FF"/>
</svg>
