<svg width="20" height="20" viewBox="0 0 20 20" fill="none" xmlns="http://www.w3.org/2000/svg">
<g clip-path="url(#clip0)">
<path d="M19.8217 14.4713C19.768 14.3813 19.4355 13.6588 17.8353 12.1737C16.1602 10.6185 16.3852 10.8711 18.4029 8.18211C19.6317 6.54449 20.123 5.54442 19.9692 5.11689C19.823 4.70936 18.9192 4.81686 18.9192 4.81686L15.9139 4.83436C15.9139 4.83436 15.6914 4.80436 15.5252 4.90312C15.3639 5.00063 15.2601 5.22564 15.2601 5.22564C15.2601 5.22564 14.7839 6.49324 14.1488 7.57082C12.81 9.84474 12.2737 9.96475 12.0549 9.82349C11.5461 9.49471 11.6736 8.50089 11.6736 7.79584C11.6736 5.59192 12.0074 4.6731 11.0223 4.43559C10.6948 4.35683 10.4548 4.30433 9.61848 4.29557C8.5459 4.28432 7.63709 4.29933 7.1233 4.55059C6.78078 4.71811 6.51701 5.09188 6.67827 5.11314C6.87703 5.13939 7.32706 5.23439 7.56583 5.55942C7.87461 5.9782 7.86335 6.92077 7.86335 6.92077C7.86335 6.92077 8.04087 9.51471 7.44957 9.83724C7.04329 10.0585 6.487 9.60722 5.29317 7.54332C4.68187 6.48699 4.21934 5.31815 4.21934 5.31815C4.21934 5.31815 4.13058 5.10063 3.97182 4.98438C3.77931 4.84312 3.50929 4.79811 3.50929 4.79811L0.651577 4.81561C0.651577 4.81561 0.222795 4.82811 0.0652838 5.01438C-0.0747264 5.18064 0.054033 5.52317 0.054033 5.52317C0.054033 5.52317 2.2917 10.7573 4.82438 13.3963C7.1483 15.8152 9.78599 15.6564 9.78599 15.6564H10.9811C10.9811 15.6564 11.3424 15.6164 11.5261 15.4177C11.6961 15.2351 11.6899 14.8926 11.6899 14.8926C11.6899 14.8926 11.6661 13.2887 12.4112 13.0525C13.145 12.82 14.0876 14.6026 15.0864 15.2889C15.8414 15.8077 16.4152 15.6939 16.4152 15.6939L19.0867 15.6564C19.0867 15.6564 20.4843 15.5702 19.8217 14.4713Z" fill="white"/>
</g>
<defs>
<clipPath id="clip0">
<rect width="20" height="20" fill="white"/>
</clipPath>
</defs>
</svg>
